<svg xmlns="http://www.w3.org/2000/svg" fill-rule="evenodd" clip-rule="evenodd" image-rendering="optimizeQuality" shape-rendering="geometricPrecision" text-rendering="geometricPrecision" viewBox="0 0 2048 2048"><defs><clipPath id="a"><path d="M1024 0c565.539 0 1024 458.461 1024 1024s-458.461 1024-1024 1024S0 1589.539 0 1024 458.461 0 1024 0z"/></clipPath></defs><path fill="#fdd835" d="M1024 0c565.539 0 1024 458.461 1024 1024s-458.461 1024-1024 1024S0 1589.539 0 1024 458.461 0 1024 0z"/><g clip-path="url(#a)"><path fill="#fbc02d" d="M1483.98 569.209L2619.86 1705.09l-.81 1.49-.8 1.49-.8 1.48-.79 1.47-.78 1.46-.77 1.46-.77 1.45-.76 1.44-.75 1.43-.75 1.43-.73 1.42-.73 1.42-.72 1.41-.72 1.4-.7 1.39-.7 1.39L1471.9 592.241l.7-1.389.7-1.395.72-1.402.72-1.408.73-1.416.73-1.421.75-1.429.75-1.435.76-1.442.76-1.45.78-1.456.78-1.463.79-1.471.8-1.477.8-1.485z"/><path fill="#fbc02d" d="M1474.52 592.241L2610.4 1728.12l-.95 1.95-.93 1.94-.92 1.93-.91 1.92-.89 1.91-.88 1.9-.86 1.89-.84 1.88-.83 1.87-.82 1.86-.8 1.85-.79 1.85-.77 1.83-.76 1.82-.74 1.82-.73 1.81L1461.1 622.267l.73-1.809.74-1.816.76-1.825.77-1.833.79-1.843.8-1.852.82-1.86.83-1.871.84-1.879.86-1.89.88-1.899.89-1.908.91-1.921.92-1.929.93-1.94zM1461.1 622.267L2596.98 1758.15l-.35.88-.34.87-.34.88-.34.87-.34.87-.33.87-.33.86-.32.87-.32.86-.32.86-.32.86-.31.86-.3.85-.31.86-.3.85-.3.85L1455.93 636.087l.3-.851.3-.852.3-.854.31-.855.31-.858.32-.859.31-.861.33-.862.32-.864.33-.867.33-.868.34-.87.33-.873.35-.872.34-.877z"/><path fill="#fbc02d" d="M1455.93 636.087L2591.81 1771.97l-.41 1.19-.4 1.19-.4 1.19-.39 1.18-.39 1.18-.38 1.18-.37 1.17-.36 1.17-.36 1.17-.35 1.16-.34 1.17-.34 1.15-.33 1.16-.33 1.16-.31 1.15-.31 1.15L1450.16 654.805l.31-1.149.31-1.152.33-1.155.33-1.156.33-1.16.35-1.162.35-1.166.36-1.167.36-1.172.37-1.173.38-1.177.38-1.179.4-1.183.39-1.186.41-1.19z"/><path fill="#fbc02d" d="M1450.16 654.805L2586.04 1790.69l-.24.87-.22.87-.23.87-.22.87-.22.87-.21.87-.21.86-.2.87-.2.86-.2.86-.2.86-.19.86-.18.86-.18.86-.18.85-.18.86L1446.9 668.625l.18-.855.17-.855.19-.858.18-.857.19-.86.2-.861.19-.861.2-.864.21-.863.21-.866.21-.867.22-.868.22-.869.22-.87.23-.873zM1446.9 668.625L2582.78 1804.51l-.23 1.18-.23 1.18-.22 1.18-.21 1.18-.21 1.17-.2 1.18-.19 1.17-.18 1.17-.18 1.17-.17 1.16-.16 1.17-.15 1.16-.15 1.16-.14 1.17-.13 1.16-.12 1.16L1444.03 687.343l.12-1.159.13-1.161.14-1.161.15-1.162.15-1.164.16-1.166.17-1.167.18-1.168.18-1.171.19-1.171.2-1.173.21-1.175.21-1.178.22-1.179.23-1.18z"/><path fill="#fbc02d" d="M1444.03 687.343L2579.91 1823.23l-.09.86-.09.87-.08.87-.08.86-.07.87-.07.86-.06.87-.07.86-.05.86-.06.86-.05.87-.04.86-.04.86-.04.86-.04.86-.03.87L1443.07 701.163l.03-.861.04-.861.03-.862.05-.862.04-.863.05-.862.05-.862.06-.863.06-.864.07-.864.07-.865.07-.866.08-.864.08-.867.09-.867zM1443.07 701.163L2578.95 1837.05l-.03 1.17-.02 1.17-.02 1.17-.01 1.17-.01 1.16.01 1.17.01 1.17.02 1.17.02 1.17.04 1.17.04 1.17.05 1.17.05 1.17.06 1.17.08 1.17.07 1.17L1443.43 719.881l-.08-1.171-.07-1.172-.06-1.171-.05-1.17-.05-1.169-.04-1.17-.04-1.17-.02-1.169-.02-1.17-.01-1.168-.01-1.169v-1.169l.02-1.17.01-1.17.03-1.169z"/><path fill="#fbc02d" d="M1443.43 719.881L2579.31 1855.76l.06.86.07.86.07.87.07.86.08.86.08.86.08.86.09.87.09.86.1.86.1.87.11.87.1.86.12.87.11.87.12.86L1444.88 733.701l-.12-.868-.12-.867-.11-.867-.11-.865-.1-.866-.1-.866-.1-.863-.09-.865-.09-.863-.08-.862-.08-.863-.08-.862-.07-.861-.07-.861-.07-.861zM1444.88 733.701L2580.76 1869.58l.16 1.16.18 1.16.17 1.16.19 1.16.19 1.17.2 1.16.21 1.17.21 1.17.22 1.17.23 1.17.23 1.17.24 1.18.25 1.18.25 1.18.26 1.18.27 1.18L1448.34 752.419l-.27-1.184-.26-1.181-.25-1.18-.25-1.178-.24-1.176-.24-1.174-.22-1.172-.22-1.17-.21-1.168-.21-1.167-.2-1.165-.19-1.163-.19-1.162-.18-1.16-.17-1.16z"/><path fill="#fbc02d" d="M1448.34 752.419L2584.22 1888.3l.19.86.21.85.2.86.21.86.21.85.21.86.22.87.22.86.22.86.23.87.23.87.23.86.24.87.24.88.25.87.24.87L1451.89 766.24l-.24-.874-.25-.873-.24-.872-.24-.869-.23-.868-.23-.867-.23-.866-.22-.865-.23-.862-.21-.862-.22-.86-.21-.859-.2-.858-.21-.856-.2-.856z"/><path fill="#fbc02d" d="M1451.89 766.24l1135.88 1135.88.34 1.15.33 1.15.34 1.15.35 1.16.36 1.16.36 1.16.36 1.17.37 1.17.38 1.17.39 1.17.39 1.18.39 1.18.4 1.18.41 1.19.41 1.19.42 1.19L1457.89 784.958l-.42-1.193-.41-1.191-.41-1.186-.4-1.183-.39-1.18-.39-1.178-.39-1.174-.38-1.17-.37-1.168-.36-1.165-.36-1.162-.36-1.16-.35-1.156-.34-1.153-.34-1.151z"/><path fill="#fbc02d" d="M1457.89 784.958L2593.77 1920.84l.3.85.31.85.3.86.31.85.32.86.31.86.32.86.32.86.33.87.32.86.33.87.34.87.33.87.34.88.34.87.35.88L1463.06 798.778l-.35-.878-.34-.876-.34-.874-.33-.872-.34-.87-.33-.868-.33-.867-.32-.865-.32-.862-.32-.861-.32-.859-.31-.857-.31-.855-.31-.854-.3-.852zM1463.06 798.778L2598.94 1934.66l.71 1.81.73 1.81.74 1.83.75 1.83.77 1.84.77 1.85.79 1.86.8 1.87.81 1.88.83 1.89.83 1.9.85 1.91.86 1.92.87 1.93.89 1.94.89 1.95L1475.95 828.803l-.89-1.952-.89-1.941-.87-1.93-.86-1.92-.85-1.909-.84-1.9-.82-1.889-.81-1.881-.8-1.869-.79-1.861-.78-1.852-.76-1.841-.75-1.833-.74-1.825-.73-1.815z"/><path fill="#fbc02d" d="M1475.95 828.803L2611.83 1964.68h-3L1472.95 828.803z"/><path fill="#fbc02d" d="M1472.95 828.803L2608.83 1964.68l.65 1.39.65 1.4.66 1.4.66 1.41.67 1.41.68 1.43.68 1.42.68 1.44.7 1.44.69 1.45.71 1.46.71 1.46.71 1.47.72 1.48.73 1.49.73 1.49L1483.98 851.835l-.73-1.491-.73-1.486-.72-1.478-.71-1.47-.71-1.464-.71-1.456-.7-1.449-.69-1.442-.68-1.437-.69-1.427-.67-1.423-.67-1.415-.66-1.409-.66-1.402-.65-1.394z"/><path fill="#fbc02d" d="M1483.98 851.835L2619.86 1987.72h-816.09L667.888 851.835z"/><path fill="#fbc02d" d="M667.888 851.835L1803.77 1987.72l-2.67-.04-2.66-.11-2.64-.18-2.62-.25-2.61-.32-2.58-.39-2.56-.46-2.55-.53-2.51-.59-2.5-.66-2.48-.72-2.45-.79-2.42-.85-2.4-.91-2.37-.97-2.34-1.03-2.31-1.09-2.29-1.15-2.25-1.21-2.23-1.26-2.19-1.32-2.16-1.37-2.12-1.43-2.09-1.48-2.06-1.53-2.01-1.58-1.99-1.64-1.94-1.68-1.91-1.73-1.86-1.78L598.117 822.787l1.866 1.779 1.905 1.731 1.944 1.684 1.982 1.633 2.018 1.584 2.055 1.532 2.091 1.48 2.125 1.428 2.158 1.372 2.192 1.319 2.223 1.263 2.254 1.207 2.285 1.149 2.313 1.09 2.344 1.033 2.37.971 2.398.91 2.423.849 2.45.787 2.473.722 2.498.658 2.52.592 2.543.526 2.563.458 2.584.391 2.603.322 2.622.251 2.64.182 2.656.109zM1455.23 886.745L2591.12 2022.63l1.7 1.96 1.65 2 1.62 2.05 1.56 2.09 1.52 2.12 1.48 2.17 1.42 2.21 1.38 2.24 1.33 2.29 1.28 2.31 1.23 2.36 1.17 2.38 1.13 2.43 1.07 2.45 1.01 2.49.96 2.51.91 2.55.85 2.57.79 2.61.73 2.63.67 2.65.61 2.69.55 2.7.49 2.73.43 2.76.37 2.77.29 2.8.24 2.81.17 2.84.1 2.85.03 2.87L1483.98 963.639l-.03-2.871-.1-2.853-.17-2.836-.24-2.816-.3-2.795-.36-2.775-.43-2.753-.49-2.731-.55-2.706-.61-2.682-.67-2.657-.73-2.631-.79-2.603-.85-2.575-.91-2.546-.96-2.516-1.01-2.485-1.07-2.454-1.13-2.421-1.17-2.387-1.23-2.354-1.28-2.319-1.33-2.282-1.38-2.244-1.42-2.207-1.48-2.169-1.52-2.128-1.57-2.087-1.61-2.047-1.65-2.003z"/><path fill="#fbc02d" d="M1483.98 963.639L2619.86 2099.52v59.52L1483.98 1023.16z"/><path fill="#fbc02d" d="M1483.98 1023.16l1135.88 1135.88-.03 2.87-.1 2.85-.17 2.84-.24 2.81-.29 2.8-.37 2.77-.43 2.76-.49 2.73-.55 2.7-.61 2.69-.67 2.65-.73 2.63-.79 2.61-.85 2.57-.91 2.55-.96 2.51-1.01 2.49-1.07 2.45-1.13 2.42-1.17 2.39-1.23 2.35-1.28 2.32-1.33 2.29-1.38 2.24-1.42 2.21-1.48 2.16-1.52 2.13-1.56 2.09-1.62 2.05-1.65 2-1.7 1.96-1.75 1.92-1135.88-1135.89 1.74-1.91 1.71-1.96 1.65-2.01 1.61-2.04 1.57-2.09 1.52-2.13 1.48-2.17 1.42-2.2 1.38-2.25 1.33-2.28 1.28-2.32 1.23-2.35 1.17-2.39 1.13-2.42 1.07-2.45 1.01-2.49.96-2.51.91-2.55.85-2.58.79-2.6.73-2.63.67-2.66.61-2.68.55-2.71.49-2.72.43-2.76.36-2.77.3-2.8.24-2.82.17-2.83.1-2.85z"/><path fill="#fbc02d" d="M1453.49 1101.96l1135.88 1135.89-1.78 1.87-1.83 1.82-1.86 1.78-1.91 1.74-1.94 1.68-1.98 1.63-2.02 1.58-2.06 1.54-2.09 1.48-2.12 1.42-2.16 1.38-2.19 1.32-2.22 1.26-2.26 1.21-2.28 1.14-2.32 1.1-2.34 1.03-2.37.97-2.4.91-2.42.85-2.45.78-2.48.73-2.49.65-2.52.6-2.55.52-2.56.46-2.58.39-2.61.32-2.62.25-2.64.19-2.65.11-2.68.03-1135.88-1135.88 2.67-.04 2.66-.11 2.64-.18 2.62-.25 2.61-.32 2.58-.39 2.56-.46 2.55-.53 2.52-.59 2.49-.66 2.48-.72 2.45-.78 2.42-.85 2.4-.91 2.37-.98 2.34-1.03 2.32-1.09 2.28-1.15 2.25-1.2 2.23-1.27 2.19-1.31 2.16-1.38 2.12-1.42 2.09-1.49 2.06-1.53 2.02-1.58 1.98-1.64 1.94-1.68 1.91-1.73 1.86-1.78 1.83-1.82zM1584 1134.71l1135.88 1135.88-.89 1.82-.88 1.81-.88 1.8-.87 1.79-.87 1.78-.85 1.77-.85 1.76-.85 1.76-.83 1.75-.83 1.74-.82 1.73-.82 1.72-.81 1.72-.8 1.7-.79 1.7-.79 1.69-1135.88-1135.88.79-1.69.79-1.7.8-1.71.81-1.71.82-1.72.82-1.73.83-1.74.83-1.75.85-1.76.84-1.76.86-1.78.87-1.78.87-1.79.87-1.8.89-1.8z"/><path fill="#fbc02d" d="M1574.22 1162.75L2710.1 2298.63l-1.09 2.38-1.07 2.36-1.06 2.35-1.05 2.34-1.03 2.32-1.02 2.32-1 2.3-.99 2.28-.98 2.28-.96 2.27-.94 2.25-.93 2.24-.92 2.23-.9 2.23-.88 2.21-.87 2.2L1558.53 1199.3l.87-2.2.88-2.21.9-2.22.92-2.23.93-2.24.94-2.26.96-2.26.98-2.28.98-2.29 1.01-2.3 1.02-2.31 1.03-2.32 1.04-2.34 1.07-2.35 1.07-2.36z"/><path fill="#fbc02d" d="M1558.53 1199.3l1135.88 1135.89-.42 1.07-.42 1.06-.41 1.07-.41 1.06-.41 1.06-.4 1.05-.4 1.06-.39 1.05-.39 1.05-.39 1.05-.39 1.05-.38 1.04-.37 1.04-.38 1.04-.37 1.04-.36 1.03-1135.88-1135.88.36-1.04.37-1.03.37-1.04.38-1.04.38-1.05.39-1.04.39-1.05.39-1.05.39-1.05.4-1.06.4-1.06.41-1.06.41-1.06.41-1.06.42-1.07z"/><path fill="#fbc02d" d="M1552.24 1216.13l1135.88 1135.88-.51 1.45-.51 1.45-.49 1.45-.49 1.44-.48 1.43-.48 1.44-.46 1.43-.46 1.42-.46 1.42-.44 1.42-.44 1.42-.43 1.41-.43 1.41-.41 1.4-.41 1.4-.4 1.4-1135.88-1135.88.4-1.4.41-1.4.41-1.41.43-1.4.43-1.41.44-1.42.44-1.42.46-1.42.46-1.43.46-1.42.48-1.44.48-1.43.49-1.44.49-1.45.51-1.45zM1544.94 1238.92L2680.82 2374.8l-.31 1.06-.29 1.07-.3 1.06-.29 1.06-.28 1.05-.28 1.06-.28 1.05-.27 1.06-.27 1.05-.26 1.04-.27 1.05-.25 1.05-.25 1.04-.25 1.04-.24 1.05-.24 1.04-1135.88-1135.89.23-1.04.25-1.04.25-1.04.25-1.05.25-1.04.26-1.05.27-1.05.27-1.05.27-1.05.28-1.05.28-1.06.28-1.06.29-1.05.3-1.06.29-1.07z"/><path fill="#fbc02d" d="M1540.61 1255.74l1135.88 1135.89-.33 1.44-.32 1.44-.3 1.43-.31 1.44-.29 1.43-.28 1.43-.28 1.42-.27 1.43-.26 1.42-.25 1.42-.24 1.42-.23 1.42-.23 1.41-.22 1.41-.2 1.41-.2 1.41-1135.89-1135.88.21-1.41.2-1.41.22-1.41.23-1.42.23-1.41.24-1.42.25-1.42.26-1.42.27-1.43.28-1.43.28-1.42.29-1.44.3-1.43.31-1.44.32-1.44zM1536.39 1278.53l1135.89 1135.88-.15 1.06-.14 1.06-.14 1.05-.13 1.06-.12 1.05-.13 1.05-.11 1.05-.12 1.06-.1 1.05-.11 1.05-.09 1.05-.1 1.05-.09 1.05-.08 1.04-.08 1.05-.07 1.05-1135.89-1135.88.08-1.05.08-1.05.08-1.05.09-1.05.09-1.04.1-1.05.11-1.05.1-1.06.12-1.05.11-1.05.12-1.05.13-1.06.13-1.05.14-1.06.14-1.05z"/><path fill="#fbc02d" d="M1534.63 1295.36l1135.89 1135.88-.1 1.43-.08 1.42-.08 1.43-.07 1.42-.06 1.43-.05 1.42-.04 1.42-.03 1.43-.02 1.42-.02 1.42V2448.33l.02 1.42.02 1.43.03 1.42.05 1.43L1534.2 1318.14l-.04-1.42-.03-1.42-.02-1.43-.02-1.42V1309.6l.02-1.42.02-1.43.03-1.42.04-1.42.05-1.43.06-1.42.07-1.43.07-1.42.09-1.43zM1534.2 1318.14l1135.89 1135.89.03 1.05.04 1.04.05 1.05.05 1.05.05 1.05.06 1.05.06 1.05.07 1.05.08 1.05.08 1.06.08 1.05.09 1.05.09 1.06.1 1.05.1 1.06.11 1.05-1135.88-1135.88-.11-1.06-.1-1.05-.1-1.06-.09-1.05-.09-1.05-.08-1.06-.08-1.05-.08-1.05-.07-1.05-.06-1.05-.06-1.05-.06-1.05-.04-1.05-.05-1.05-.04-1.05z"/><path fill="#fbc02d" d="M1535.35 1334.97l1135.88 1135.88.15 1.41.16 1.42.17 1.41.18 1.41.19 1.42.2 1.42.2 1.42.22 1.42.22 1.43.24 1.43.24 1.42.25 1.43.26 1.44.27 1.43.27 1.44.29 1.44-1135.88-1135.88-.29-1.44-.28-1.44-.26-1.43-.26-1.44-.25-1.43-.25-1.43-.23-1.42-.22-1.43-.22-1.42-.2-1.42-.2-1.42-.19-1.42-.18-1.41-.17-1.42-.16-1.41z"/><path fill="#fbc02d" d="M1538.86 1357.76l1135.88 1135.88.21 1.04.22 1.04.22 1.05.23 1.04.23 1.05.23 1.05.24 1.04.25 1.05.25 1.06.25 1.05.26 1.05.27 1.06.26 1.06.28 1.06.28 1.06.28 1.07-1135.88-1135.89-.28-1.06-.28-1.06-.28-1.06-.26-1.06-.27-1.06-.26-1.05-.25-1.06-.25-1.05-.25-1.05-.24-1.05-.23-1.04-.23-1.05-.23-1.05-.22-1.04-.22-1.04z"/><path fill="#fbc02d" d="M1542.82 1374.58L2678.7 2510.47l.38 1.4.38 1.4.4 1.4.4 1.41.41 1.41.42 1.42.43 1.42.43 1.42.45 1.42.45 1.43.46 1.44.47 1.43.47 1.44.49 1.44.49 1.45.5 1.45-1135.88-1135.88-.5-1.45-.49-1.45-.49-1.44-.48-1.44-.46-1.44-.46-1.43-.46-1.43-.44-1.42-.43-1.43-.43-1.42-.42-1.41-.41-1.41-.4-1.41-.4-1.41-.38-1.4z"/><path fill="#fbc02d" d="M1549.85 1397.37l1135.88 1135.88.36 1.04.37 1.04.37 1.04.38 1.04.38 1.04.38 1.05.39 1.05.39 1.05.39 1.05.4 1.05.41 1.06.41 1.06.41 1.06.41 1.06.42 1.07.43 1.07L1556.15 1414.2l-.43-1.07-.42-1.07-.41-1.06-.42-1.06-.4-1.06-.41-1.06-.4-1.05-.39-1.06-.39-1.05-.39-1.05-.39-1.04-.38-1.04-.37-1.05-.37-1.04-.37-1.03z"/><path fill="#fbc02d" d="M1556.15 1414.2l1135.88 1135.88.88 2.2.91 2.21.92 2.22.94 2.24.96 2.24.97 2.25 1 2.27 1.01 2.27 1.03 2.29 1.05 2.3 1.06 2.32 1.09 2.32 1.1 2.34 1.12 2.35 1.14 2.36 1.16 2.37-1135.89-1135.88-1.15-2.37-1.14-2.37-1.12-2.35-1.11-2.33-1.08-2.33-1.07-2.31-1.04-2.3-1.03-2.29-1.02-2.27-.99-2.27-.98-2.25-.95-2.25-.94-2.23-.92-2.22-.91-2.21zM1572.48 1450.75l1135.89 1135.88h-3.2L1569.29 1450.75z"/><path fill="#fbc02d" d="M1569.29 1450.75l1135.88 1135.88.85 1.69.86 1.7.87 1.71.88 1.71.89 1.73.89 1.73.91 1.74.91 1.74.93 1.76.93 1.76.94 1.78.95 1.78.97 1.79.96 1.8.98 1.81.99 1.81L1584 1478.79l-.99-1.82-.98-1.8-.97-1.8-.96-1.79-.95-1.79-.94-1.77-.93-1.76-.93-1.76-.91-1.75-.91-1.74-.9-1.73-.88-1.72-.88-1.71-.87-1.71-.86-1.7zM590.455 1134.71L1726.34 2270.59h-26.44L564.018 1134.71zM590.455 1478.79L1726.34 2614.67l-3.26-.04-3.23-.13-3.22-.22-3.19-.31-3.17-.39-3.14-.48-3.12-.56-3.1-.64-3.07-.72-3.04-.8-3.01-.88-2.98-.96-2.95-1.03-2.92-1.11-2.89-1.18-2.85-1.26-2.82-1.32-2.78-1.4-2.74-1.47-2.71-1.54-2.67-1.61-2.63-1.67-2.58-1.73-2.55-1.81-2.5-1.86-2.46-1.93-2.41-1.99L512.47 1449.75l2.413 1.99 2.458 1.93 2.502 1.86 2.544 1.8 2.586 1.74 2.628 1.67 2.668 1.61 2.707 1.54 2.744 1.46 2.782 1.4 2.818 1.33 2.852 1.26 2.886 1.18 2.919 1.11 2.951 1.03 2.982.96 3.011.88 3.041.8 3.067.72 3.096.64 3.12.56 3.146.47 3.17.4 3.191.3 3.214.22 3.235.14zM575.048 1111.68L1710.93 2247.56h-3L572.05 1111.68z"/><path fill="#fbc02d" d="M1584 1478.79l1135.88 1135.88h-993.54L590.455 1478.79z"/><path fill="#fbc02d" d="M667.888 569.209h816.094c-4.35 7.98-8.376 15.641-12.085 23.032h2.626c-5.11 10.433-9.58 20.405-13.421 30.026a326.374 326.374 0 0 0-5.17 13.82 266.017 266.017 0 0 0-5.777 18.718 226.716 226.716 0 0 0-3.253 13.82 198.82 198.82 0 0 0-2.877 18.718 192.618 192.618 0 0 0-.953 13.82 185.787 185.787 0 0 0 .36 18.718c.317 4.586.799 9.19 1.447 13.82a220.138 220.138 0 0 0 3.458 18.718 264.917 264.917 0 0 0 3.557 13.82 321.76 321.76 0 0 0 5.996 18.719 407.638 407.638 0 0 0 5.168 13.82c3.78 9.615 8.084 19.587 12.892 30.024h-2.998a1142.95 1142.95 0 0 0 11.03 23.033H667.888c-28.595 0-54.57-12.542-73.38-32.745-18.812-20.201-30.49-48.099-30.49-78.81v-59.517c0-30.71 11.678-58.606 30.49-78.81 18.81-20.203 44.784-32.744 73.38-32.744zm-103.87 282.874h816.094c28.595 0 54.57 12.542 73.38 32.745 18.812 20.203 30.49 48.1 30.49 78.81v59.517c0 30.711-11.678 58.609-30.49 78.81-18.81 20.203-44.785 32.744-73.38 32.744h203.889c-4.775 9.714-9.253 19.043-13.428 28.04h3.65c-5.854 12.707-11.093 24.849-15.696 36.555a495.879 495.879 0 0 0-6.292 16.825c-2.739 7.758-5.173 15.341-7.3 22.789a321.448 321.448 0 0 0-4.329 16.825c-1.76 7.695-3.165 15.275-4.212 22.788a240.896 240.896 0 0 0-1.76 16.825c-.529 7.61-.676 15.189-.43 22.788a233.54 233.54 0 0 0 1.143 16.825 244.824 244.824 0 0 0 3.511 22.79 274.941 274.941 0 0 0 3.96 16.824c1.993 7.454 4.336 15.035 7.033 22.788a407.665 407.665 0 0 0 6.295 16.825c4.677 11.712 10.117 23.852 16.338 36.554h-3.196c4.514 8.996 9.417 18.325 14.713 28.04H590.455c-34.813 0-66.436-15.269-89.338-39.864-22.901-24.596-37.117-58.56-37.117-95.947v-72.458c0-37.39 14.216-71.352 37.117-95.946 22.902-24.596 54.526-39.866 89.338-39.866h-26.437c3.923-7.978 7.6-15.641 11.03-23.031h-2.998c4.808-10.438 9.112-20.41 12.893-30.026 1.845-4.686 3.57-9.29 5.167-13.82a320.906 320.906 0 0 0 5.997-18.718 263.666 263.666 0 0 0 3.555-13.82 219.632 219.632 0 0 0 3.46-18.719c.648-4.63 1.13-9.232 1.446-13.82.435-6.25.555-12.476.353-18.718-.144-4.59-.46-9.192-.939-13.82a201.211 201.211 0 0 0-2.884-18.718 226.051 226.051 0 0 0-3.253-13.82c-1.637-6.123-3.562-12.35-5.777-18.718a334.764 334.764 0 0 0-5.17-13.82c-3.843-9.62-8.31-19.592-13.42-30.025h2.625c-3.708-7.39-7.735-15.052-12.085-23.033z"/></g><path fill="none" d="M1024 0c565.539 0 1024 458.461 1024 1024s-458.461 1024-1024 1024S0 1589.539 0 1024 458.461 0 1024 0z"/><path fill="#e65100" fill-rule="nonzero" d="M1483.98 851.835H667.886c-28.595 0-54.57-12.542-73.38-32.745-18.812-20.202-30.49-48.1-30.49-78.81v-59.517c0-30.71 11.678-58.607 30.49-78.81 18.81-20.203 44.784-32.744 73.38-32.744h816.094c-62.635 114.91-58.345 163.943 0 282.626z"/><path fill="#fb8c00" d="M1475.95 828.803c-41.882-90.914-45.484-146.604-1.428-236.562h-804.07c-22.614 0-44.053 9.358-60.03 25.998-15.975 16.641-24.958 38.97-24.958 62.526v59.515c0 23.554 8.982 45.883 24.959 62.523 15.976 16.64 37.415 26 60.028 26h805.5z"/><path fill="#ffe0b2" d="M1455.93 636.087a326.052 326.052 0 015.177-13.82H606.784a89.05 89.05 0 00-9.64 13.82h858.786zM1446.9 668.625a226.72 226.72 0 013.253-13.82H589.21a90.86 90.86 0 00-2.946 13.82H1446.9zM1443.08 701.163c.144-4.592.46-9.193.946-13.82H585.464v13.82h857.616zM1444.88 733.701a197.842 197.842 0 01-1.447-13.82H585.464v13.82h859.416zM1451.89 766.24a264.902 264.902 0 01-3.556-13.82H586.263a90.862 90.862 0 002.945 13.82h862.681zM1463.06 798.778a407.644 407.644 0 01-5.167-13.82H597.15a89.115 89.115 0 009.64 13.82h856.27z"/><path fill="#01579b" fill-rule="nonzero" d="M564.018 1134.71h816.094c28.595 0 54.57-12.541 73.38-32.745 18.812-20.2 30.49-48.098 30.49-78.809v-59.517c0-30.71-11.678-58.607-30.49-78.81-18.81-20.203-44.785-32.745-73.38-32.745H564.018c62.635 114.91 58.345 163.944 0 282.626z"/><path fill="#039be5" d="M572.05 1111.68c41.882-90.914 45.484-146.604 1.428-236.562h804.07c22.614 0 44.053 9.357 60.03 25.998 15.975 16.641 24.958 38.97 24.958 62.525v59.515c0 23.554-8.982 45.884-24.959 62.523-15.976 16.642-37.415 26.001-60.028 26.001h-805.5z"/><path fill="#01579b" d="M592.068 918.961a326.659 326.659 0 00-5.177-13.82h854.322a89.032 89.032 0 019.64 13.82H592.068zM601.098 951.499a226.928 226.928 0 00-3.253-13.82h860.943a90.922 90.922 0 012.946 13.82H601.098zM604.921 984.037c-.144-4.591-.46-9.193-.946-13.82h858.562v13.82H604.92zM603.121 1016.58c.648-4.631 1.13-9.233 1.447-13.82h857.969v13.82H603.12zM596.106 1049.11a263.666 263.666 0 003.555-13.819h862.072a90.877 90.877 0 01-2.946 13.819h-862.68zM584.943 1081.65c1.845-4.685 3.57-9.29 5.167-13.819h860.743a89.104 89.104 0 01-9.64 13.819h-856.27z"/><path fill="#424242" fill-rule="nonzero" d="M1584 1134.71H590.454c-34.812 0-66.436 15.27-89.338 39.866-22.901 24.594-37.117 58.557-37.117 95.946v72.458c0 37.388 14.216 71.35 37.117 95.947 22.902 24.595 54.525 39.864 89.338 39.864H1584c-76.256-139.896-71.032-199.592 0-344.08z"/><path fill="#757575" d="M1574.22 1162.75c-50.99 110.684-55.375 178.482-1.739 288h-978.91c-27.53 0-53.629-11.392-73.08-31.651-19.45-20.26-30.387-47.444-30.387-76.12v-72.457c0-28.675 10.936-55.86 30.388-76.119 19.45-20.26 45.549-31.653 73.08-31.653h980.648z"/><path fill="#424242" d="M1549.85 1397.37a397.933 397.933 0 006.302 16.825H516.062a108.353 108.353 0 01-11.736-16.825h1045.52zM1538.86 1357.76a276.895 276.895 0 003.96 16.825H494.67a110.928 110.928 0 01-3.586-16.825h1047.77zM1534.2 1318.14c.175 5.59.557 11.192 1.152 16.825H490.102v-16.825h1044.1zM1536.39 1278.53a240.896 240.896 0 00-1.76 16.825H490.1v-16.825h1046.29zM1544.94 1238.92a321.448 321.448 0 00-4.329 16.825H491.091a110.751 110.751 0 013.585-16.825h1050.26zM1558.53 1199.3a495.879 495.879 0 00-6.292 16.825h-1047.9a108.49 108.49 0 0111.737-16.825h1042.46z"/></svg>