<svg xmlns="http://www.w3.org/2000/svg" enable-background="new 0 0 128 128" viewBox="0 0 128 128"><path fill="#e6e7e8" d="M118.496,34.843l-0.918-0.608l2.068-3.121c0.848-1.279,1.146-2.811,0.842-4.314
			c-0.305-1.504-1.177-2.799-2.457-3.646c-1.278-0.847-2.81-1.146-4.314-0.841c-1.504,0.305-2.798,1.177-3.646,2.456l-2.62,3.954
			l-10.087,15.22l-3.337,5.036v-33.9c0-2.754-2.24-4.995-4.994-4.995h-72.64c-2.754,0-4.995,2.241-4.995,4.995v102.448
			c0,2.421,1.97,4.391,4.391,4.391h71.929c3.479,0,6.31-2.831,6.31-6.31V69.772l12.913-19.484l9.535-14.387l0.918,0.609
			c0.459,0.305,0.585,0.926,0.281,1.386l-12.618,19.039l-2.601,2.085c-0.431,0.346-0.5,0.975-0.155,1.406
			c0.198,0.247,0.488,0.375,0.781,0.375c0.22,0,0.44-0.072,0.625-0.22l2.723-2.183c0.081-0.065,0.151-0.142,0.208-0.228L119.339,39
			C120.253,37.622,119.874,35.756,118.496,34.843z"/><path fill="#d4fbff" d="M83.716,116.916H11.787c-1.873,0-3.39-1.518-3.39-3.391V11.078c0-2.206,1.788-3.994,3.994-3.994h72.64
					c2.206,0,3.994,1.788,3.994,3.994v100.528C89.026,114.539,86.648,116.916,83.716,116.916z"/><path fill="#fff" d="M85.031,7.084h-72.64c-2.206,0-3.994,1.788-3.994,3.994v3c0-2.206,1.788-3.994,3.994-3.994h72.64
				c2.206,0,3.994,1.788,3.994,3.994v-3C89.025,8.872,87.237,7.084,85.031,7.084z"/><rect width="38.823" height="9.487" x="68.015" y="54.553" fill="#6dc9f7" transform="rotate(-56.468 87.422 59.294)"/><rect width="9.487" height="18.259" x="98.45" y="26.375" fill="#fa759e" transform="rotate(33.53 103.199 35.513)"/><path fill="#ffd7e5" d="M112.192,30.515l-7.908-5.241l2.62-3.954c1.447-2.184,4.391-2.781,6.575-1.334l0,0
					c2.184,1.447,2.781,4.391,1.334,6.575L112.192,30.515z"/><polygon fill="#fa759e" points="70.044 85.526 72.749 72.857 80.657 78.098"/><path fill="#3a2c60" d="M89.025 83.615c-.552 0-1 .448-1 1v9.097c0 .552.448 1 1 1s1-.448 1-1v-9.097C90.025 84.063 89.578 83.615 89.025 83.615zM37.418 29.137h39.938c.552 0 1-.448 1-1s-.448-1-1-1H37.418c-.552 0-1 .448-1 1S36.866 29.137 37.418 29.137zM37.418 43.484h39.938c.552 0 1-.448 1-1s-.448-1-1-1H37.418c-.552 0-1 .448-1 1S36.866 43.484 37.418 43.484zM37.418 57.831h39.938c.552 0 1-.448 1-1s-.448-1-1-1H37.418c-.552 0-1 .448-1 1S36.866 57.831 37.418 57.831zM77.356 98.873H37.418c-.552 0-1 .448-1 1s.448 1 1 1h39.938c.552 0 1-.448 1-1S77.909 98.873 77.356 98.873zM30.274 24.704c0-1.385-1.126-2.511-2.511-2.511h-6.866c-1.385 0-2.511 1.126-2.511 2.511v6.866c0 1.385 1.126 2.511 2.511 2.511h6.866c1.385 0 2.511-1.126 2.511-2.511V24.704zM28.274 31.57c0 .282-.229.511-.511.511h-6.866c-.282 0-.511-.229-.511-.511v-6.866c0-.282.229-.511.511-.511h6.866c.282 0 .511.229.511.511V31.57zM30.274 53.398c0-1.385-1.126-2.511-2.511-2.511h-6.866c-1.385 0-2.511 1.126-2.511 2.511v6.866c0 1.385 1.126 2.511 2.511 2.511h6.866c1.385 0 2.511-1.126 2.511-2.511V53.398zM28.274 60.264c0 .282-.229.511-.511.511h-6.866c-.282 0-.511-.229-.511-.511v-6.866c0-.282.229-.511.511-.511h6.866c.282 0 .511.229.511.511V60.264zM27.763 79.582h-6.866c-1.385 0-2.511 1.126-2.511 2.511v6.866c0 1.385 1.126 2.511 2.511 2.511h6.866c1.385 0 2.511-1.126 2.511-2.511v-6.866C30.274 80.708 29.147 79.582 27.763 79.582zM28.274 88.959c0 .282-.229.511-.511.511h-6.866c-.282 0-.511-.229-.511-.511v-6.866c0-.282.229-.511.511-.511h6.866c.282 0 .511.229.511.511V88.959z"/><path fill="#3a2c60" d="M114.496,30.843l-0.918-0.608l2.068-3.121c0.848-1.279,1.146-2.811,0.842-4.314
					c-0.305-1.504-1.177-2.799-2.457-3.646c-1.278-0.847-2.81-1.146-4.314-0.841c-1.504,0.305-2.798,1.177-3.646,2.456l-2.62,3.954
					l-10.087,15.22l-3.337,5.036v-33.9c0-2.754-2.24-4.995-4.994-4.995h-72.64c-2.754,0-4.995,2.241-4.995,4.995v102.448
					c0,2.421,1.97,4.391,4.391,4.391h71.929c3.479,0,6.31-2.831,6.31-6.31V99.023c0-0.552-0.448-1-1-1s-1,0.448-1,1v12.583
					c0,2.376-1.933,4.31-4.31,4.31H11.787c-1.318,0-2.391-1.072-2.391-2.391V11.078c0-1.651,1.343-2.995,2.995-2.995h72.64
					c1.651,0,2.994,1.343,2.994,2.995v36.918L73.325,70.179H37.418c-0.552,0-1,0.448-1,1s0.448,1,1,1h34.581l-0.083,0.125
					c-0.008,0.011-0.008,0.025-0.015,0.036c-0.058,0.095-0.106,0.196-0.13,0.307l-2.537,11.878H37.418c-0.552,0-1,0.448-1,1
					s0.448,1,1,1h39.938c0.552,0,1-0.448,1-1s-0.448-1-1-1h-4.14l8.014-5.609c0.093-0.065,0.168-0.149,0.233-0.239
					c0.008-0.011,0.02-0.017,0.028-0.028l6.534-9.86v10.335c0,0.552,0.448,1,1,1s1-0.448,1-1V65.772l12.913-19.484l9.535-14.387
					l0.918,0.609c0.459,0.305,0.585,0.926,0.281,1.386l-12.618,19.038l-2.601,2.085c-0.431,0.346-0.5,0.975-0.155,1.406
					c0.198,0.247,0.488,0.375,0.781,0.375c0.22,0,0.44-0.072,0.625-0.22l2.723-2.183c0.081-0.065,0.151-0.142,0.208-0.228
					L115.339,35C116.253,33.622,115.874,31.756,114.496,30.843z M107.737,21.873c1.141-1.719,3.469-2.192,5.189-1.052
					c0.833,0.552,1.402,1.396,1.601,2.376s0.004,1.979-0.548,2.813l-2.068,3.12l-6.241-4.136L107.737,21.873z M71.553,83.25
					l1.868-8.748l5.46,3.619L71.553,83.25z M80.376,76.711l-6.241-4.136l20.342-30.694l6.241,4.136L80.376,76.711z M101.823,44.35
					l-6.241-4.136l8.982-13.553l6.241,4.136L101.823,44.35z"/><path fill="#fa759e" d="M23.405 31.016c-.406 0-.795-.165-1.078-.457l-4.235-4.379c-.576-.596-.56-1.545.035-2.121.596-.576 1.546-.56 2.121.035l3.102 3.207 6.525-7.455c.545-.624 1.493-.688 2.117-.141.624.546.687 1.493.141 2.117l-7.599 8.682c-.276.316-.672.501-1.092.512C23.43 31.016 23.417 31.016 23.405 31.016zM23.405 59.71c-.406 0-.795-.165-1.078-.457l-4.235-4.379c-.576-.596-.56-1.545.035-2.121.596-.576 1.546-.56 2.121.035l3.102 3.207 6.525-7.455c.545-.624 1.493-.687 2.117-.141s.687 1.493.141 2.117l-7.599 8.682c-.276.316-.672.501-1.092.512C23.43 59.71 23.417 59.71 23.405 59.71z"/></svg>