<svg xmlns="http://www.w3.org/2000/svg" enable-background="new 0 0 64 64" viewBox="0 0 64 64"><circle cx="30.449" cy="5.843" r="5.343" fill="#303838"/><path fill="#303838" d="M21.929,41.924v-5.84h-4.69v1.873h-4.555v-1.873H7.993v5.84c0,0.75,0.609,1.357,1.361,1.357H20.57
			C21.32,43.281,21.929,42.674,21.929,41.924z"/><path fill="#303838" d="M45.168,25.625l-7.563-3.299c-0.104-0.059-0.325-0.234-0.389-0.309l-6.506-9.055
			c-0.793-1.1-2.323-1.35-3.423-0.563c-0.123,0.09-0.623,0.467-0.767,0.57l-10.019,7.436c-0.881,0.654-1.631,1.809-1.871,2.877
			l-1.894,8.443h-0.389H9.354c-0.752,0-1.361,0.607-1.361,1.357v2.266h13.937v-2.266c0-0.75-0.609-1.357-1.359-1.357h-2.811
			l1.638-7.301c0.02-0.039,0.055-0.09,0.081-0.123l3.832-2.846c0,0-0.01,5.836-0.087,10.896c-0.024,1.777,0.192,3.73,0.192,3.73
			l0.355,6.506c0.002,0.139-0.063,0.465-0.109,0.58l-4.918,10.402c-0.577,1.223-0.054,2.684,1.169,3.26
			c0.339,0.162,0.694,0.238,1.046,0.238c0.919,0,1.798-0.52,2.217-1.406l4.916-10.398c0.389-0.818,0.623-2.025,0.573-2.93
			l-0.283-5.199l5.647,4.064c0.038,0.043,0.09,0.119,0.117,0.17l2.805,10.285c0.298,1.092,1.284,1.809,2.365,1.809
			c0.211,0,0.429-0.027,0.646-0.086c1.304-0.357,2.075-1.703,1.719-3.01l-2.822-10.344c-0.28-1.031-1.054-2.143-1.919-2.77
			l-6.229-4.482l1.61-9.172l0.917,1.277c0.556,0.773,1.516,1.545,2.389,1.926l7.58,3.311c0.319,0.139,0.652,0.205,0.979,0.205
			c0.943,0,1.846-0.551,2.247-1.473C46.975,27.609,46.406,26.162,45.168,25.625z"/><polygon fill="#1C75BC" points="33.711 63.5 20.885 63.5 20.885 61.051 31.26 61.051 31.26 54.191 43.349 54.191 43.349 46.961 56.007 46.961 56.007 49.41 45.798 49.41 45.798 56.641 33.711 56.641"/></svg>