<svg xmlns="http://www.w3.org/2000/svg" viewBox="0 0 64 64"><rect width="58" height="38" x="3" y="8" fill="#348fd9" rx="2"/><path fill="#fff" d="M57,38V16a4,4,0,0,1-4-4H11a4,4,0,0,1-4,4V38a4,4,0,0,1,4,4H53A4,4,0,0,1,57,38Z"/><path fill="#348fd9" d="M41 18H23a1 1 0 0 1 0-2H41a1 1 0 0 1 0 2zM47 28H15a1 1 0 0 1 0-2H47a1 1 0 0 1 0 2zM41 33H15a1 1 0 0 1 0-2H41a1 1 0 0 1 0 2zM35 38H15a1 1 0 0 1 0-2H35a1 1 0 0 1 0 2zM51 23H25.2554a1 1 0 0 1 0-2H51a1 1 0 0 1 0 2zM20.915 23H13a1 1 0 0 1 0-2h7.915a1 1 0 0 1 0 2z"/><path d="M61,10V44a2.0059,2.0059,0,0,1-2,2H5a2.0059,2.0059,0,0,1-2-2V38H21A32.0035,32.0035,0,0,0,52.94,8H59A2.0059,2.0059,0,0,1,61,10Z" opacity=".2"/><polygon fill="#de4132" points="55 56 51 53 47 56 47 42 55 42 55 56"/><path d="M51,42v5a2.5,2.5,0,0,1-4,2h0v7l4-3,4,3V42Z" opacity=".2"/><circle cx="51" cy="39" r="6" fill="#ffa912"/><path d="M52.6731,33.2412a5.9935,5.9935,0,0,1-6.3462,9.5176,5.9979,5.9979,0,1,0,6.3462-9.5176Z" opacity=".1"/></svg>