<svg xmlns="http://www.w3.org/2000/svg" viewBox="0 0 32 32"><path fill="#eef2fa" d="M12.5 3.5h5v5h-5z"/><path fill="#d5e5f2" d="M14 6V3.5h-1.5v5h5V7H15c-.6 0-1-.4-1-1z"/><path fill="#eef2fa" d="M12.5 13.5h5v5h-5z"/><path fill="#d5e5f2" d="M14 16v-2.5h-1.5v5h5V17H15c-.6 0-1-.4-1-1z"/><path fill="#eef2fa" d="M12.5 23.5h5v5h-5z"/><path fill="#d5e5f2" d="M14 26v-2.5h-1.5v5h5V27H15c-.6 0-1-.4-1-1z"/><circle cx="6" cy="6" r="3.5" fill="#fecb5b"/><circle cx="6" cy="16" r="3.5" fill="#91ca60"/><circle cx="6" cy="26" r="3.5" fill="#ef4a4c"/><path fill="#f8b545" d="M4.5 6c0-1.6 1.1-2.9 2.5-3.3-.3-.1-.7-.2-1-.2-1.9 0-3.5 1.6-3.5 3.5S4.1 9.5 6 9.5c.3 0 .7-.1 1-.2C5.6 8.9 4.5 7.6 4.5 6z"/><path fill="#70bb57" d="M4.5 16c0-1.6 1.1-2.9 2.5-3.3-.3-.1-.7-.2-1-.2-1.9 0-3.5 1.6-3.5 3.5s1.6 3.5 3.5 3.5c.3 0 .7-.1 1-.2-1.4-.4-2.5-1.7-2.5-3.3z"/><path fill="#e0313f" d="M4.5 26c0-1.6 1.1-2.9 2.5-3.3-.3-.1-.7-.2-1-.2-1.9 0-3.5 1.6-3.5 3.5s1.6 3.5 3.5 3.5c.3 0 .7-.1 1-.2-1.4-.4-2.5-1.7-2.5-3.3z"/><path fill="#004463" d="M6 10c-2.2 0-4-1.8-4-4s1.8-4 4-4 4 1.8 4 4-1.8 4-4 4zm0-7C4.3 3 3 4.3 3 6s1.3 3 3 3 3-1.3 3-3-1.3-3-3-3z"/><path fill="#004463" d="M6 8c-.5 0-1-.2-1.4-.6-.2-.2-.2-.5 0-.7s.5-.2.7 0c.4.4 1 .4 1.4 0 .2-.2.5-.2.7 0s.2.5 0 .7C7 7.8 6.5 8 6 8z"/><circle cx="4.8" cy="5" r=".5" fill="#004463"/><circle cx="7.3" cy="5" r=".5" fill="#004463"/><path fill="#004463" d="M6 20c-2.2 0-4-1.8-4-4s1.8-4 4-4 4 1.8 4 4-1.8 4-4 4zm0-7c-1.7 0-3 1.3-3 3s1.3 3 3 3 3-1.3 3-3-1.3-3-3-3z"/><path fill="#004463" d="M7.1 17.5H4.9c-.3 0-.5-.2-.5-.5s.2-.5.5-.5H7c.3 0 .5.2.5.5s-.2.5-.4.5z"/><circle cx="4.8" cy="15" r=".5" fill="#004463"/><circle cx="7.3" cy="15" r=".5" fill="#004463"/><path fill="#004463" d="M6 30c-2.2 0-4-1.8-4-4s1.8-4 4-4 4 1.8 4 4-1.8 4-4 4zm0-7c-1.7 0-3 1.3-3 3s1.3 3 3 3 3-1.3 3-3-1.3-3-3-3z"/><path fill="#004463" d="M7.1 28c-.1 0-.3 0-.4-.1-.4-.4-1-.4-1.4 0-.2.2-.5.2-.7 0s-.2-.5 0-.7c.7-.7 2.1-.7 2.8 0 .2.2.2.5 0 .7-.1.1-.2.1-.3.1z"/><circle cx="4.8" cy="25" r=".5" fill="#004463"/><circle cx="7.3" cy="25" r=".5" fill="#004463"/><path fill="#004463" d="M17.5 9h-5c-.3 0-.5-.2-.5-.5v-5c0-.3.2-.5.5-.5h5c.3 0 .5.2.5.5v5c0 .3-.2.5-.5.5zM13 8h4V4h-4v4z"/><path fill="#004463" d="M15.4 7.5c-.1 0-.3 0-.4-.1L13.6 6c-.2-.2-.2-.5 0-.7s.5-.2.7 0l1.1 1.1 3.2-3.2c.2-.2.5-.2.7 0s.2.5 0 .7l-3.5 3.5c-.1 0-.2.1-.4.1zM17.5 19h-5c-.3 0-.5-.2-.5-.5v-5c0-.3.2-.5.5-.5h5c.3 0 .5.2.5.5v5c0 .3-.2.5-.5.5zM13 18h4v-4h-4v4zm4.5 11h-5c-.3 0-.5-.2-.5-.5v-5c0-.3.2-.5.5-.5h5c.3 0 .5.2.5.5v5c0 .3-.2.5-.5.5zM13 28h4v-4h-4v4zm16.5-3h-9c-.3 0-.5-.2-.5-.5s.2-.5.5-.5h9c.3 0 .5.2.5.5s-.2.5-.5.5zm-3 2h-6c-.3 0-.5-.2-.5-.5s.2-.5.5-.5h6c.3 0 .5.2.5.5s-.2.5-.5.5zm3-12h-9c-.3 0-.5-.2-.5-.5s.2-.5.5-.5h9c.3 0 .5.2.5.5s-.2.5-.5.5zm-3 2h-6c-.3 0-.5-.2-.5-.5s.2-.5.5-.5h6c.3 0 .5.2.5.5s-.2.5-.5.5zm3-12h-9c-.3 0-.5-.2-.5-.5s.2-.5.5-.5h9c.3 0 .5.2.5.5s-.2.5-.5.5zm-3 2h-6c-.3 0-.5-.2-.5-.5s.2-.5.5-.5h6c.3 0 .5.2.5.5s-.2.5-.5.5z"/></svg>