<svg xmlns="http://www.w3.org/2000/svg" viewBox="0 0 512 512"><path fill="#eef0ee" d="M202.341 386.343h107.318v29.143H202.341z"/><path fill="#65c5ef" d="M490.969 79.502V316.24H21.031V79.502c0-11.045 8.953-19.998 19.998-19.998h429.942c11.045-.001 19.998 8.953 19.998 19.998z"/><path fill="#878787" d="M21.022 316.264v49.752c0 11.045 8.953 19.998 19.998 19.998h429.96c11.045 0 19.998-8.953 19.998-19.998v-49.752H21.022z"/><path fill="#878787" d="M21.022 316.264v49.752c0 11.045 8.953 19.998 19.998 19.998h429.96c11.045 0 19.998-8.953 19.998-19.998v-49.752H21.022zm330.149 130.952a5.28 5.28 0 0 1-5.28 5.28H166.109a5.28 5.28 0 0 1-5.28-5.28c0-17.516 14.2-31.716 31.716-31.716h126.91c17.517 0 31.716 14.2 31.716 31.716z"/><path fill="#eef0ee" d="M268.585 351.292c0 6.967-5.651 12.585-12.585 12.585-6.935 0-12.585-5.618-12.585-12.585 0-6.935 5.651-12.585 12.585-12.585 6.935-.001 12.585 5.65 12.585 12.585z"/><path fill="#f9e109" d="M135.835 128.353V98.711a8.42 8.42 0 0 0-8.421-8.421H97.773a8.42 8.42 0 0 0-8.421 8.421v29.642a8.42 8.42 0 0 0 8.421 8.421h29.642a8.42 8.42 0 0 0 8.42-8.421z"/><path fill="#eef0ee" d="M318.893 129.969H164.972a3.3 3.3 0 1 1 0-6.6h153.921a3.3 3.3 0 1 1 0 6.6zm-69.423-26.273h-84.498a3.3 3.3 0 1 1 0-6.6h84.498a3.3 3.3 0 1 1 0 6.6z"/><path fill="#f9e109" d="M135.835 202.693v-29.642a8.42 8.42 0 0 0-8.421-8.421H97.773a8.42 8.42 0 0 0-8.421 8.421v29.642a8.42 8.42 0 0 0 8.421 8.421h29.642a8.42 8.42 0 0 0 8.42-8.421z"/><path fill="#eef0ee" d="M318.893 204.309H164.972a3.3 3.3 0 1 1 0-6.6h153.921a3.3 3.3 0 1 1 0 6.6zm-69.423-26.274h-84.498a3.3 3.3 0 1 1 0-6.6h84.498a3.3 3.3 0 1 1 0 6.6z"/><path fill="#f9e109" d="M135.835 277.033v-29.642a8.42 8.42 0 0 0-8.421-8.421H97.773a8.42 8.42 0 0 0-8.421 8.421v29.642a8.42 8.42 0 0 0 8.421 8.421h29.642a8.42 8.42 0 0 0 8.42-8.421z"/><path fill="#eef0ee" d="M318.893 278.649H164.972a3.3 3.3 0 1 1 0-6.6h153.921a3.3 3.3 0 1 1 0 6.6zm-69.423-26.273h-84.498a3.3 3.3 0 1 1 0-6.6h84.498a3.3 3.3 0 1 1 0 6.6z"/><path fill="#f8664f" d="m425.603 240.885-20.728 5.886-5.886 20.728c-1.271 4.478-7.566 4.619-9.038.204l-14.936-44.808c-1.233-3.698 2.285-7.216 5.983-5.983l44.808 14.936c4.416 1.472 4.274 7.766-.203 9.037z"/></svg>