<svg xmlns="http://www.w3.org/2000/svg" viewBox="0 0 132 132"><circle cx="66" cy="66" r="64" fill="#168DE2"/><path fill="#2E6BCE" d="M120.525 71.572h9.23c.07-.67.12-1.34.15-2.02h-9.38c-.55 0-1.01.46-1.01 1.01 0 .56.46 1.01 1.01 1.01zm-10.97 0h6.61c.55 0 1-.45 1-1.01 0-.55-.45-1.01-1-1.01h-6.61c-.56 0-1.01.46-1.01 1.01 0 .56.45 1.01 1.01 1.01zm-3.916 36.484c.55 0 1-.45 1-1.01 0-.55-.45-1.01-1-1.01h-.18c-.55 0-1.01.46-1.01 1.01 0 .56.46 1.01 1.01 1.01h.18zm-16.86-1.01c0 .56.45 1.01 1.01 1.01h11.31c.55 0 1-.45 1-1.01 0-.55-.45-1.01-1-1.01h-11.31c-.56 0-1.01.46-1.01 1.01zm-17.844 14.786c.56 0 1.01-.45 1.01-1.01 0-.55-.45-1.01-1.01-1.01h-.17c-.56 0-1.01.46-1.01 1.01 0 .56.45 1.01 1.01 1.01h.17zm-51.28-52.28c.55 0 1-.46 1-1.01 0-.56-.45-1.01-1-1.01H6.395c-.55 0-1.01.45-1.01 1.01 0 .55.46 1.01 1.01 1.01h13.26zm41.44 51.27c0 .56.46 1.01 1.01 1.01h4.29c.56 0 1.01-.45 1.01-1.01 0-.55-.45-1.01-1.01-1.01h-4.29c-.55 0-1.01.46-1.01 1.01zM30.52 102.057c0 .56-.45 1.01-1.01 1.01H18.2c-.55 0-1-.45-1-1.01 0-.55.45-1.01 1-1.01h11.31c.56 0 1.01.46 1.01 1.01zm3.36 1.01c-.56 0-1.01-.45-1.01-1.01 0-.55.45-1.01 1.01-1.01h.17c.56 0 1.01.46 1.01 1.01 0 .56-.45 1.01-1.01 1.01h-.17zm9.84-1.01c0 .56-.46 1.01-1.01 1.01h-4.29c-.56 0-1.01-.45-1.01-1.01 0-.55.45-1.01 1.01-1.01h4.29c.55 0 1.01.46 1.01 1.01zM30.055 68.542c0-.56-.46-1.01-1.01-1.01h-5.03c-.55 0-1.01.45-1.01 1.01 0 .55.46 1.01 1.01 1.01h5.03c.55 0 1.01-.46 1.01-1.01zm47.88-56.106c0 .55-.45 1.01-1.01 1.01h-.17c-.56 0-1.01-.46-1.01-1.01s.45-1.01 1.01-1.01h.17c.56 0 1.01.46 1.01 1.01zm-44.35 57.116c.55 0 1.01-.46 1.01-1.01 0-.56-.46-1.01-1.01-1.01h-.17c-.56 0-1.01.45-1.01 1.01 0 .55.45 1.01 1.01 1.01h.17zm22 51.27c0 .56.45 1.01 1.01 1.01h1.15c.55 0 1-.45 1-1.01 0-.55-.45-1.01-1-1.01h-1.15c-.56 0-1.01.46-1.01 1.01zm11.5-108.386c0-.55.46-1.01 1.01-1.01h4.29c.55 0 1.01.46 1.01 1.01s-.46 1.01-1.01 1.01h-4.29c-.55 0-1.01-.46-1.01-1.01zm-5.51 0c0-.55.45-1.01 1.01-1.01h1.14c.56 0 1.01.46 1.01 1.01s-.45 1.01-1.01 1.01h-1.14c-.56 0-1.01-.46-1.01-1.01zM97.74 27.932c-.55 0-1 .46-1 1.01 0 .56.45 1.01 1 1.01H111c.55 0 1.01-.45 1.01-1.01 0-.55-.46-1.01-1.01-1.01H97.74zm-10.4 1.01c0 .56.46 1.01 1.01 1.01h5.03c.55 0 1.01-.45 1.01-1.01 0-.55-.46-1.01-1.01-1.01h-5.03c-.55 0-1.01.46-1.01 1.01zm-3.53-1.01c-.55 0-1.01.46-1.01 1.01 0 .56.46 1.01 1.01 1.01h.17c.56 0 1.01-.45 1.01-1.01 0-.55-.45-1.01-1.01-1.01h-.17zm-43.225-2.02c0 .55-.45 1.01-1.01 1.01h-.17c-.56 0-1.01-.46-1.01-1.01s.45-1.01 1.01-1.01h.17c.56 0 1.01.46 1.01 1.01zm-10.85 0c0-.55.46-1.01 1.01-1.01h4.29c.55 0 1.01.46 1.01 1.01s-.46 1.01-1.01 1.01h-4.29c-.55 0-1.01-.46-1.01-1.01zm-5.51 0c0-.55.45-1.01 1.01-1.01h1.14c.56 0 1.01.46 1.01 1.01s-.45 1.01-1.01 1.01h-1.14c-.56 0-1.01-.46-1.01-1.01zM83.925 86.389c0 .55-.45 1.01-1.01 1.01h-.17c-.56 0-1.01-.46-1.01-1.01s.45-1.01 1.01-1.01h.17c.56 0 1.01.46 1.01 1.01zm-10.85 0c0-.55.46-1.01 1.01-1.01h4.29c.55 0 1.01.46 1.01 1.01s-.46 1.01-1.01 1.01h-4.29c-.55 0-1.01-.46-1.01-1.01zm-5.51 0c0-.55.45-1.01 1.01-1.01h1.14c.56 0 1.01.46 1.01 1.01s-.45 1.01-1.01 1.01h-1.14c-.56 0-1.01-.46-1.01-1.01z"/><g fill="#2E6BCE"><path d="M34.464 28.444v72.186a4.324 4.324 0 0 0 4.324 4.324h52.586a4.324 4.324 0 0 0 4.324-4.324V40.293L79.536 24.119H38.788a4.324 4.324 0 0 0-4.324 4.325z"/><path d="M104.596 94.383c0 9.176-7.465 16.641-16.642 16.641s-16.641-7.465-16.641-16.641c0-9.167 7.465-16.632 16.641-16.632s16.642 7.465 16.642 16.632zm-25.06-70.264v11.85a4.324 4.324 0 0 0 4.324 4.324h11.838L79.536 24.119z"/></g><path fill="#FFF" d="M33.65 27.63v72.186a4.324 4.324 0 0 0 4.325 4.325H90.56a4.324 4.324 0 0 0 4.325-4.325V39.48L78.722 23.306H37.975a4.324 4.324 0 0 0-4.325 4.324z"/><path fill="#EDEDED" d="M94.89 39.484v60.331a4.33 4.33 0 0 1-4.33 4.33H37.977a4.305 4.305 0 0 1-4.032-2.775 4.1 4.1 0 0 0 1.556.297h33.53c12.914 0 23.383-10.469 23.383-23.383V37.007l2.477 2.477z"/><path fill="#F34B50" d="M78.722 23.306v11.849a4.324 4.324 0 0 0 4.325 4.324h11.838L78.722 23.306z"/><path fill="#EDEDED" d="M84.636 60.759c0 .748-.606 1.355-1.355 1.355H45.263a1.363 1.363 0 0 1-1.364-1.355 1.37 1.37 0 0 1 1.364-1.365h38.018c.749 0 1.355.616 1.355 1.365zm0 7.51c0 .748-.606 1.355-1.355 1.355H45.263a1.363 1.363 0 0 1-1.364-1.355 1.37 1.37 0 0 1 1.364-1.364h38.018c.749 0 1.355.616 1.355 1.364zm0 7.51c0 .749-.606 1.355-1.355 1.355H45.263A1.363 1.363 0 0 1 43.9 75.78a1.37 1.37 0 0 1 1.364-1.364h38.018c.749 0 1.355.616 1.355 1.364zm0 7.51c0 .749-.606 1.355-1.355 1.355H45.263A1.363 1.363 0 0 1 43.9 83.29a1.37 1.37 0 0 1 1.364-1.365h38.018c.749 0 1.355.616 1.355 1.365zm0 7.51c0 .75-.606 1.356-1.355 1.356H45.263A1.363 1.363 0 0 1 43.9 90.8a1.37 1.37 0 0 1 1.364-1.364h38.018c.749 0 1.355.615 1.355 1.364z"/><path fill="#66B071" d="M57.935 35.338V50.76a1.57 1.57 0 0 1-1.57 1.57H45.158a1.57 1.57 0 0 1-1.57-1.57V35.338c0-.867.703-1.57 1.57-1.57h11.207c.868 0 1.57.703 1.57 1.57z"/><path fill="#F34B50" d="M103.096 92.883c0 9.176-7.465 16.641-16.642 16.641s-16.641-7.465-16.641-16.641c0-9.167 7.465-16.632 16.641-16.632s16.642 7.465 16.642 16.632z"/><path fill="#FF6C77" d="M93.145 80.601a.533.533 0 0 1-.251-.062 13.951 13.951 0 0 0-6.44-1.578.542.542 0 1 1 0-1.084c2.413 0 4.813.589 6.942 1.702a.542.542 0 0 1-.251 1.022zm-15.83 1.615a.542.542 0 0 1-.342-.962 15.044 15.044 0 0 1 6.581-3.096.541.541 0 1 1 .21 1.064 13.94 13.94 0 0 0-6.105 2.873.54.54 0 0 1-.343.121zM71.98 93.425a.542.542 0 0 1-.542-.542 15.01 15.01 0 0 1 3.399-9.498.543.543 0 0 1 .838.687 13.929 13.929 0 0 0-3.153 8.81c0 .3-.242.543-.542.543zm2.094 7.49a.542.542 0 0 1-.464-.26 14.863 14.863 0 0 1-2.004-5.53.542.542 0 0 1 .455-.617.545.545 0 0 1 .616.456c.275 1.822.9 3.548 1.86 5.129a.543.543 0 0 1-.463.823z"/><path fill="#E53946" d="M103.092 92.882c0 9.18-7.457 16.637-16.638 16.637-5.159 0-9.787-2.362-12.832-6.058a16.612 16.612 0 0 0 10.502 3.728c9.17 0 16.637-7.468 16.637-16.637 0-3.967-1.398-7.63-3.728-10.491 3.696 3.045 6.059 7.662 6.059 12.821z"/><path fill="#FFF" d="M83.63 99.026c-.361 0-.707-.143-.962-.398l-3.905-3.905a1.359 1.359 0 1 1 1.922-1.922l2.944 2.943 8.598-8.597a1.359 1.359 0 1 1 1.922 1.922l-9.559 9.559c-.255.255-.6.398-.96.398z"/></svg>