<svg xmlns="http://www.w3.org/2000/svg" viewBox="0 0 130 130"><circle cx="65" cy="65" r="64" fill="#66B071"/><path fill="#479E60" d="M120.09 57.697h8.499c-.072-.597-.139-1.196-.227-1.788h-8.272c-.492 0-.894.402-.894.894s.402.894.894.894zM11.649 83.317l-8.03-.001c.174.599.351 1.196.542 1.788h7.488a.896.896 0 0 0 .894-.893.897.897 0 0 0-.894-.895z"/><circle cx="14.394" cy="84.211" r=".894" fill="#479E60"/><path fill="#479E60" d="M11.756 43.758a.895.895 0 1 0 0-1.79H5.538c-.235.595-.471 1.188-.688 1.79h6.906zm36.41 25.338a.894.894 0 1 1-1.79 0 .894.894 0 0 1 1.79 0zm2.11.9h9.591a.895.895 0 1 0 0-1.79h-9.59a.9.9 0 0 0-.9.89c0 .49.41.9.9.9zm24.174 49.32a.894.894 0 1 1-1.79 0 .894.894 0 0 1 1.79 0zm2.11.9h6.592a.895.895 0 1 0 0-1.79H76.56a.9.9 0 0 0-.9.89c0 .49.41.9.9.9zM85.79 14.2a.894.894 0 1 1-1.79 0 .894.894 0 0 1 1.79 0zm2.11.9h6.591a.895.895 0 1 0 0-1.79h-6.59a.9.9 0 0 0-.9.89c-.001.49.41.9.899.9zm-13.913 0h6.591a.895.895 0 1 0 0-1.79h-6.59a.9.9 0 0 0-.901.89c0 .49.41.9.9.9zm37.4 63.555a.894.894 0 1 1-1.79 0 .895.895 0 0 1 1.79 0zm2.11.9h6.592a.895.895 0 1 0 0-1.79h-6.591a.9.9 0 0 0-.9.89c0 .49.41.9.9.9zM89.663 35.522a.894.894 0 1 0 1.79 0 .894.894 0 0 0-1.79 0zm-2.11.9H75.896a.895.895 0 1 1 0-1.79H87.55c.49 0 .9.4.9.89s-.41.9-.899.9zM36.445 16.674a.894.894 0 1 1-1.79 0 .894.894 0 0 1 1.79 0zm2.11.9h6.59a.895.895 0 1 0 0-1.79h-6.59a.9.9 0 0 0-.9.89c0 .49.41.9.9.9zm-10.372 88.092a.894.894 0 1 1-1.79 0 .894.894 0 0 1 1.79 0zm2.11.9h12.591a.895.895 0 1 0 0-1.79h-12.59a.9.9 0 0 0-.9.89c0 .49.41.9.9.9zm60.56-27.883h-5.808a.897.897 0 0 1-.894-.894c0-.492.402-.894.894-.894h5.808c.492 0 .894.402.894.894a.897.897 0 0 1-.894.894zm-8.808 0h-3.108a.897.897 0 0 1-.894-.894c0-.492.402-.894.894-.894h3.108c.492 0 .894.402.894.894a.897.897 0 0 1-.894.894z"/><path fill="#479E60" d="M10.612 98.726C21.902 116.896 42.034 129 65 129s43.097-12.104 54.388-30.274H10.612z"/><path fill="#479E60" d="M101.88 28.592h-8.66v-4.866a3.332 3.332 0 0 0-6.664 0v4.866H71.252v-4.866a3.332 3.332 0 0 0-6.664 0v4.866H49.284v-4.866a3.332 3.332 0 0 0-6.664 0v4.866h-8.66c-4.842 0-8.697 3.955-8.697 8.697v55.107a8.696 8.696 0 0 0 8.696 8.696h67.922a8.696 8.696 0 0 0 8.696-8.696V37.289c0-4.772-3.891-8.697-8.696-8.697z"/><path fill="#EDEDED" d="M107.657 37.289v55.107a8.696 8.696 0 0 1-8.696 8.696H31.039a8.696 8.696 0 0 1-8.696-8.696V37.289a8.696 8.696 0 0 1 8.696-8.697h67.922a8.696 8.696 0 0 1 8.696 8.697z"/><path fill="#DDDCE0" d="M107.655 37.288v55.11c0 4.8-3.89 8.69-8.69 8.69h-67.93c-3.55 0-6.6-2.13-7.96-5.18 1.08.47 2.27.74 3.53.74h49.803c14.805 0 26.807-12.002 26.807-26.807V32.848c0-1.25-.26-2.44-.75-3.52a8.7 8.7 0 0 1 5.19 7.96z"/><path fill="#4A749B" d="M107.657 42.9v-5.612a8.697 8.697 0 0 0-8.696-8.696H31.039a8.697 8.697 0 0 0-8.696 8.696V42.9h85.314z"/><path fill="#EDEDED" d="M90.3 23.726v9.733a3.332 3.332 0 0 1-6.664 0v-9.733a3.332 3.332 0 1 1 6.664 0zm-21.968 0v9.733a3.332 3.332 0 1 1-6.664 0v-9.733a3.332 3.332 0 1 1 6.664 0zm-21.968 0v9.733a3.332 3.332 0 1 1-6.664 0v-9.733a3.332 3.332 0 1 1 6.664 0z"/><path fill="#FFF" d="M41.48 26.863c.254 0 .467.214.467.477v4.379a.473.473 0 0 1-.466.467.475.475 0 0 1-.476-.467v-4.38c0-.262.213-.476.476-.476zm0-3.78c.254 0 .467.214.467.476v2.092a.473.473 0 0 1-.466.466.475.475 0 0 1-.476-.466v-2.092c0-.262.213-.476.476-.476zM63.388 26.863c.253 0 .467.214.467.477v4.379a.473.473 0 0 1-.467.467.475.475 0 0 1-.476-.467v-4.38c0-.262.214-.476.476-.476zm0-3.78c.253 0 .467.214.467.476v2.092a.473.473 0 0 1-.467.466.475.475 0 0 1-.476-.466v-2.092c0-.262.214-.476.476-.476zM85.296 26.863c.253 0 .466.214.466.477v4.379a.473.473 0 0 1-.466.467.475.475 0 0 1-.476-.467v-4.38c0-.262.213-.476.476-.476zm0-3.78c.253 0 .466.214.466.476v2.092a.473.473 0 0 1-.466.466.475.475 0 0 1-.476-.466v-2.092c0-.262.213-.476.476-.476z"/><path fill="#6894AF" d="M51.86 39.73a.812.812 0 0 1-.815.799H30.507a.809.809 0 0 1-.798-.798c0-.45.365-.814.798-.814h20.538c.449 0 .814.365.814.814zm12.913 0a.812.812 0 0 1-.815.799h-7.49a.809.809 0 0 1-.798-.798c0-.45.366-.814.798-.814h7.49c.449 0 .815.365.815.814z"/><path fill="#FFF" d="M25.255 69.98a.812.812 0 0 1-.798-.814V48.627c0-.432.365-.797.798-.797.449 0 .814.365.814.797v20.539a.815.815 0 0 1-.814.814zm0 12.913a.812.812 0 0 1-.798-.814v-7.49c0-.432.365-.798.798-.798.449 0 .814.366.814.798v7.49a.815.815 0 0 1-.814.814z"/><path fill="#F34B50" d="m73.84 75.881 1.345 7.829c.231 1.344-1.18 2.369-2.386 1.735l-7.034-3.697a1.645 1.645 0 0 0-1.53 0L57.2 85.445c-1.207.634-2.617-.391-2.386-1.735l1.345-7.829a1.645 1.645 0 0 0-.473-1.456l-5.694-5.549c-.977-.952-.438-2.61.912-2.806l7.868-1.14c.536-.079 1-.415 1.239-.901l3.513-7.123c.603-1.223 2.347-1.223 2.95 0l3.513 7.123c.24.486.703.822 1.24.9l7.867 1.14c1.35.197 1.89 1.855.912 2.807l-5.694 5.549a1.645 1.645 0 0 0-.473 1.456z"/></svg>