<svg xmlns="http://www.w3.org/2000/svg" data-name="Layer 1" viewBox="0 0 128 128"><path fill="#fc785e" d="M104,93.83V124H24s.5-16,0-24a16.14521,16.14521,0,0,1,5-12.67l18.55-8.78a21.33085,21.33085,0,0,0,1.58,1.7,20.477,20.477,0,0,0,2.36,2.02A19.09607,19.09607,0,0,0,62.77,86h2.46a20.48656,20.48656,0,0,0,14.96-7.15L97.5,87.5Z"/><path fill="#2d4356" d="M38,4H6A5.98144,5.98144,0,0,0,0,9.95V29.67A6.33218,6.33218,0,0,0,6,36H19.06l13.79,9.64A2.00737,2.00737,0,0,0,36,44V36.03c.33,0,2.56-.01,3.1-.03,1.83-.1,4.9-1.04,4.9-6.33V9.95A5.98144,5.98144,0,0,0,38,4Zm2,25.67c0,2.28-.58,2.31-1.1,2.33-.49005.03-4.84,0-4.85,0A2.02313,2.02313,0,0,0,32,34v6.16l-11.17-7.8A2.003,2.003,0,0,0,19.69,32H6a2.33023,2.33023,0,0,1-2-2.33V9.95A1.98293,1.98293,0,0,1,6,8H38a1.98293,1.98293,0,0,1,2,1.95Z"/><path fill="#ffdb80" d="M40,9.95V29.67c0,2.28-.58,2.31-1.1,2.33-.49005.03-4.84,0-4.85,0A2.02313,2.02313,0,0,0,32,34v6.16l-11.17-7.8A2.003,2.003,0,0,0,19.69,32H6a2.33023,2.33023,0,0,1-2-2.33V9.95A1.98293,1.98293,0,0,1,6,8H38A1.98293,1.98293,0,0,1,40,9.95Z"/><path fill="#2d4356" d="M122,4H90a5.98144,5.98144,0,0,0-6,5.95V29.67c0,5.29,3.07,6.23,4.9,6.33.54.02,2.77.03,3.1.03V44a2.00737,2.00737,0,0,0,3.15,1.64L108.94,36H122a6.33218,6.33218,0,0,0,6-6.33V9.95A5.98144,5.98144,0,0,0,122,4Zm2,25.67A2.33023,2.33023,0,0,1,122,32H108.31a2.003,2.003,0,0,0-1.14.36L96,40.16V34a2.02083,2.02083,0,0,0-2.04-2c-.01,0-4.37.03-4.86,0-.52-.02-1.1-.05-1.1-2.33V9.95A1.98293,1.98293,0,0,1,90,8h32a1.98293,1.98293,0,0,1,2,1.95Z"/><path fill="#ffdb80" d="M124,9.95V29.67A2.33023,2.33023,0,0,1,122,32H108.31a2.003,2.003,0,0,0-1.14.36L96,40.16V34a2.02083,2.02083,0,0,0-2.04-2c-.01,0-4.37.03-4.86,0-.52-.02-1.1-.05-1.1-2.33V9.95A1.98293,1.98293,0,0,1,90,8h32A1.98293,1.98293,0,0,1,124,9.95Z"/><path fill="#2d4356" d="M65.23,32H62.77C53.52,32,46,40.64,46,51.25v11.5C46,73.36,53.52,82,62.77,82h2.46C74.48,82,82,73.36,82,62.75V51.25C82,40.64,74.48,32,65.23,32ZM78,62.75C78,71.16,72.27,78,65.23,78H62.77C55.73,78,50,71.16,50,62.75V51.25C50,42.84,55.73,36,62.77,36h2.46C72.27,36,78,42.84,78,51.25Z"/><path fill="#e1ebf4" d="M78,51.25v11.5C78,71.16,72.27,78,65.23,78H62.77C55.73,78,50,71.16,50,62.75V51.25C50,42.84,55.73,36,62.77,36h2.46C72.27,36,78,42.84,78,51.25Z"/><path fill="#2d4356" d="M58.58979 68.292a1.99981 1.99981 0 002.8204 2.8359 3.55607 3.55607 0 015.1796 0 1.99981 1.99981 0 102.8204-2.8359A7.51016 7.51016 0 0058.58979 68.292zM60 55a2.00009 2.00009 0 00-2-2H56a2 2 0 000 4h2A2.00009 2.00009 0 0060 55zM70 53a2 2 0 000 4h2a2 2 0 000-4zM84 110a2.00008 2.00008 0 00-2 2v10a2 2 0 004 0V112A2.0001 2.0001 0 0084 110zM44 110a2.00008 2.00008 0 00-2 2v10a2 2 0 004 0V112A2.00009 2.00009 0 0044 110zM22 12a2.00008 2.00008 0 00-2 2v4a2 2 0 004 0V14A2.00009 2.00009 0 0022 12z"/><circle cx="22" cy="26" r="2" fill="#2d4356"/><circle cx="106" cy="28" r="2" fill="#2d4356"/><path fill="#2d4356" d="M105.86429,10a5.61337,5.61337,0,0,0-5.2159,3.5083,1.99974,1.99974,0,1,0,3.7032,1.5107,1.63673,1.63673,0,1,1,2.2685,2.0787A4.53464,4.53464,0,0,0,104,21.0425V22a2,2,0,0,0,4,0l-.001-.9541a1.06826,1.06826,0,0,1,.48539-.4092A5.6428,5.6428,0,0,0,105.86429,10Z"/><path fill="#ad9359" d="M40 27.67v2c0 2.28-.58 2.31-1.1 2.33-.49005.03-4.84 0-4.85 0A2.02313 2.02313 0 0032 34V32a2.02313 2.02313 0 012.05-2c.01 0 4.36.03 4.85 0C39.42 29.98 40 29.95 40 27.67zM32 38.16v2l-11.17-7.8A2.003 2.003 0 0019.69 32H6a2.33023 2.33023 0 01-2-2.33v-2A2.33023 2.33023 0 006 30H19.69a2.003 2.003 0 011.14.36z" opacity=".45"/><path fill="#f9edd2" d="M40 9.95v2A1.98293 1.98293 0 0038 10H6a1.98293 1.98293 0 00-2 1.95v-2A1.98293 1.98293 0 016 8H38A1.98293 1.98293 0 0140 9.95zM124 9.95v2A1.98293 1.98293 0 00122 10H90a1.98293 1.98293 0 00-2 1.95v-2A1.98293 1.98293 0 0190 8h32A1.98293 1.98293 0 01124 9.95z" opacity=".5"/><path fill="#ad9359" d="M96 32v2a2.02083 2.02083 0 00-2.04-2c-.01 0-4.37.03-4.86 0-.52-.02-1.1-.05-1.1-2.33v-2c0 2.28.58 2.31 1.1 2.33.49005.03 4.85 0 4.86 0A2.02083 2.02083 0 0196 32zM124 27.67v2A2.33023 2.33023 0 01122 32H108.31a2.003 2.003 0 00-1.14.36L96 40.16v-2l11.17-7.8a2.003 2.003 0 011.14-.36H122A2.33023 2.33023 0 00124 27.67z" opacity=".45"/><path fill="#f9dbd7" d="M51.49 82.27L34.12 89.12c-.57.28-7.66 3.95-8.12 11.14v-2c.46-7.19 7.55-10.86 8.12-11.14l15.01-6.87A20.477 20.477 0 0051.49 82.27zM102 98.26v2c-.46-7.18005-7.52-10.84-8.12-11.14L76.52 82.24a19.20477 19.20477 0 002.3-1.94l15.06 6.82C94.48 87.42 101.54 91.08 102 98.26z" opacity=".3"/><path fill="#9fa5aa" d="M78,60.75v2C78,71.16,72.27,78,65.23,78H62.77C55.73,78,50,71.16,50,62.75v-2C50,69.16,55.73,76,62.77,76h2.46C72.27,76,78,69.16,78,60.75Z" opacity=".5"/><path fill="#fff" d="M78,51.25v2C78,44.84,72.27,38,65.23,38H62.77C55.73,38,50,44.84,50,53.25v-2C50,42.84,55.73,36,62.77,36h2.46C72.27,36,78,42.84,78,51.25Z" opacity=".5"/><path fill="#2d4356" d="M46.88869 77.7124s-14.3858 5.749-14.419 5.7647c-.4028.187-9.8803 4.6977-10.4663 14.6049C22.001 98.1216 22 122 22 122a2 2 0 004 0V98.2617c.46089-7.1899 7.54979-10.8569 8.11869-11.1391l15.6547-6.2549A22.30417 22.30417 0 0146.88869 77.7124zM95.53129 83.4771c-.03329-.0157-14.42-5.7647-14.42-5.7647a22.2728 22.2728 0 01-2.8847 3.1548l15.6552 6.2549c.5957.2959 7.6621 3.9629 8.11821 11.1391V122a2 2 0 004 0s-.001-23.8779-.00391-23.917C105.416 88.1748 95.93459 83.6641 95.53129 83.4771z"/></svg>