<svg xmlns="http://www.w3.org/2000/svg" viewBox="0 0 24 24"><circle cx="12" cy="12" r="10" fill="#b2b1ff"/><path fill="#6563ff" d="M15 10a3 3 0 0 0-5.598-1.501 1 1 0 0 0 1.73 1.002A1 1 0 1 1 12 11a1 1 0 0 0-1 1v1a1 1 0 0 0 2 0v-.184A2.995 2.995 0 0 0 15 10zm-3 7a1 1 0 0 1-.38-.08 1.147 1.147 0 0 1-.33-.21 1.16 1.16 0 0 1-.21-.33A.832.832 0 0 1 11 16a1.39 1.39 0 0 1 .02-.2.65.65 0 0 1 .06-.18.742.742 0 0 1 .09-.18 1.611 1.611 0 0 1 .12-.15 1.047 1.047 0 0 1 1.42 0A1.032 1.032 0 0 1 13 16a1 1 0 0 1-.08.38.9.9 0 0 1-.54.54A1 1 0 0 1 12 17z"/></svg>