<svg xmlns="http://www.w3.org/2000/svg" viewBox="0 0 100 100"><path fill="red" d="M49.189 46.558v.001c.004.009.011.016.015.026-.004-.01-.01-.017-.015-.027zm.944-1.078zm-.878.305a.834.834 0 0 0-.059.101l-.003.006a.806.806 0 0 1 .062-.107zm6.356-4.679.021.025-.021-.025zm-2.71-1.549c-.007-.013-.016-.023-.023-.036.008.013.017.024.024.037l-.001-.001zm-3.957 2.539v.002a2.159 2.159 0 0 0 0-.002zm.122.28.003.006c.089.166.203.321.342.466l.006.006a2.121 2.121 0 0 1-.351-.478z"/><path fill="#fdc960" d="M80.618 33.008H75.35c-.06 0-.121.005-.182.012.006.271-.046.655-.046.824 0 .143.075.876.063 1.316.402-.06.898.017 1.29.017h5.493c-.039-.263.003-.574.003-.836 0-.142-.075-.876-.063-1.316-.403.059-.897-.017-1.29-.017z"/><path fill="red" d="m49.439 42.876.004.004c.07.07.145.138.227.203l.004.003a2.522 2.522 0 0 1-.235-.21zm.541.425.002.001a4.415 4.415 0 0 0-.002-.001z"/><path fill="#fdc960" d="M80.618 24.416H75.35c-.06 0-.121.005-.182.011.006.271-.046.655-.046.825 0 .142.075.876.063 1.316.402-.06.898.017 1.29.017h5.493c-.039-.263.003-.574.003-.836 0-.142-.075-.876-.063-1.316-.403.059-.897-.017-1.29-.017z"/><path fill="red" d="M49.691 43.1c.059.046.124.089.19.132-.067-.045-.134-.089-.194-.136l.004.004zM55.512 41.014l.006.006h.001zM62.312 41.819l-.021-.026.021.026z"/><path fill="#fdc960" d="M37.798 24.416H32.53a1.89 1.89 0 0 0-.182.011c.006.271-.046.655-.046.825 0 .142.075.876.063 1.316.402-.06.898.017 1.29.017h5.493c-.039-.263.003-.574.003-.836 0-.142-.075-.876-.063-1.316-.402.059-.896-.017-1.29-.017z"/><path fill="red" d="m68.053 44.992-.021-.025h-.001l.022.025zm-5.762-3.871.021-.026-.021.026z"/><path fill="#fdc960" d="M52.072 24.416H46.804a1.87 1.87 0 0 0-.182.011c.006.271-.046.655-.046.825 0 .142.075.876.063 1.316.402-.06.898.017 1.29.017h5.492c-.038-.263.004-.574.004-.836 0-.142-.075-.876-.063-1.316-.403.059-.897-.017-1.29-.017zm14.273 0H61.077c-.06 0-.122.005-.182.011.006.271-.046.655-.046.825 0 .142.075.876.063 1.316.402-.06.898.017 1.29.017h5.492c-.039-.263.003-.574.003-.836 0-.142-.075-.876-.063-1.316-.402.059-.896-.017-1.289-.017z"/><path fill="red" d="m57.729 41.246.002-.004v-.001zM57.799 41.131a.552.552 0 0 1 .021-.025l-.021.025zm4.491 2.862c.001 0 .001 0 0 0a.507.507 0 0 1 .022-.026l-.022.026zM55.7 41.241v.001l.003.004zM62.312 44.992l-.021-.025.021.025z"/><path fill="#57a1fc" d="M30.356 79.536h7.493l-7.494-12.359.001 12.359z"/><path fill="#f167de" d="M44.733 40.775c-1.221 0-1.654 1.244-1.654 2.309 0 1.073.514 2.228 1.644 2.228 1.143 0 1.654-1.155 1.654-2.299 0-1.077-.514-2.238-1.644-2.238z"/><path fill="red" d="m38.431 43.967.021.026a.24.24 0 0 0-.021-.026zM48.935 42.069l.001.003.001.003zM52.195 40.695l.06-.001-.06.001zm-15.747 3.298a.507.507 0 0 0 0 0z"/><path fill="#57a1fc" d="m59.901 57.333.656 1.082 9.087 14.986V57.333h-9.743z"/><path fill="#52f3f7" d="M68.008 74.229c-3.415-5.632-6.83-11.265-10.246-16.896h-5.854l1.144 1.836L65.598 79.3c.049.08.081.158.104.236h3.941v-2.665a1.02 1.02 0 0 1-.146-.184l-1.489-2.458z"/><path fill="#57a1fc" d="m37.786 58.711 10.66 17.579V57.333H36.95l.836 1.378zm12.488-.544v21.369h13.318l-1.366-2.192-11.952-19.177z"/><path fill="#52f3f7" d="M46.343 76.348 34.812 57.333h-4.456v6.318l9.633 15.885h8.457v-.058a.88.88 0 0 1-.434-.377l-1.669-2.753z"/><path fill="red" d="m36.469 41.778-.021-.026a.593.593 0 0 0 .021.026z"/><path fill="#f167de" d="M85.927 42.234H72.293a3.178 3.178 0 0 1-3.044-2.307c-1.358-4.804-9.382-8.426-18.664-8.426-9.28 0-17.302 3.623-18.66 8.426a3.178 3.178 0 0 1-3.044 2.307H14.073c-.737 0-1.336.599-1.336 1.337v5.475c0 .737.599 1.337 1.336 1.337h71.855c.737 0 1.337-.6 1.337-1.337V43.57a1.339 1.339 0 0 0-1.338-1.336zm-45.425 4.177a.555.555 0 0 1-.551.551h-.83a.543.543 0 0 1-.504-.33.544.544 0 0 1-.047-.221v-2.083a.556.556 0 0 0-.117-.336l-.021-.026a.543.543 0 0 0-.412-.189h-1.139a.55.55 0 0 0-.412.189l-.021.026a.549.549 0 0 0-.117.336v2.083a.555.555 0 0 1-.551.551h-.82a.543.543 0 0 1-.504-.33.544.544 0 0 1-.047-.221v-6.735a.555.555 0 0 1 .551-.55h.82a.543.543 0 0 1 .504.33c.03.068.047.142.047.22v1.74a.549.549 0 0 0 .117.336l.021.026a.543.543 0 0 0 .412.189h1.139a.543.543 0 0 0 .412-.189l.021-.026a.534.534 0 0 0 .118-.336v-1.74a.555.555 0 0 1 .551-.55h.83a.546.546 0 0 1 .504.33c.03.068.047.142.047.22v6.735zm4.171.662c-2.105 0-3.576-1.632-3.576-3.969 0-2.408 1.512-4.09 3.676-4.09 2.105 0 3.576 1.628 3.576 3.959.001 2.832-1.846 4.1-3.676 4.1zm6.203.071c-.097 0-.197-.004-.298-.012l-.031-.003a4.196 4.196 0 0 1-.27-.029l-.105-.018c-.065-.011-.13-.02-.195-.034-.058-.012-.114-.027-.171-.041l-.06-.014-.06-.014a.755.755 0 0 1-.158-.063h-.001c-.026-.014-.048-.032-.072-.049-.022-.015-.046-.028-.066-.045-.025-.021-.045-.046-.067-.07-.016-.018-.034-.033-.048-.051-.024-.032-.042-.066-.061-.1-.008-.014-.018-.026-.024-.041v-.001a.719.719 0 0 1-.054-.158c-.004-.018-.004-.037-.007-.056a.806.806 0 0 1-.013-.11c0-.025.005-.05.007-.075.003-.031.003-.061.01-.092a.75.75 0 0 1 .054-.164l.003-.006.006-.011a.721.721 0 0 1 .059-.101c.01-.015.022-.028.033-.042a.562.562 0 0 1 .046-.053l.047-.046.04-.033c.02-.015.039-.031.061-.044l.015-.009a.776.776 0 0 1 .158-.072c.012-.004.022-.009.034-.011a.599.599 0 0 1 .071-.015l.056-.009c.021-.002.042-.004.063-.004l.024-.001.05.003c.018.001.035.001.053.004a.846.846 0 0 1 .129.027c.268.082.546.125.805.125.68 0 1.086-.304 1.086-.814 0-.341-.082-.655-1.08-1.039a5.669 5.669 0 0 1-.604-.253l-.03-.015-.03-.014a4.415 4.415 0 0 1-.299-.167l-.009-.006-.022-.014c-.025-.016-.046-.033-.07-.049-.065-.043-.131-.086-.19-.132l-.008-.006-.003-.002a2.638 2.638 0 0 1-.238-.212l-.032-.033a2.121 2.121 0 0 1-.347-.475l-.007-.014-.002-.004a1.823 1.823 0 0 1-.11-.257l-.008-.026a1.967 1.967 0 0 1-.001-.003 2.15 2.15 0 0 1-.107-.684c0-1.338 1.126-2.31 2.677-2.31h.012c.145 0 .28.008.408.019l.034.003c.145.014.278.034.4.058l.011.001c.039.008.075.023.111.036.018.007.038.01.056.018-.018-.008-.038-.012-.056-.018.019.007.039.01.057.019.021.009.037.022.057.033.031.018.062.034.09.055.022.017.04.037.06.056.022.021.045.039.064.062.022.026.038.056.056.084.012.019.027.036.037.056l.001.002a.776.776 0 0 1 .061.16c.009.034.011.068.015.103.002.022.009.045.01.068a.821.821 0 0 1-.009.121c-.002.018-.001.035-.004.053a.805.805 0 0 1-.053.171l-.008.014.004-.008a.707.707 0 0 1-.058.104l-.006.011-.024.03a.622.622 0 0 1-.046.056c-.013.015-.028.029-.042.043-.015.013-.03.027-.046.039-.017.014-.034.026-.051.038-.015.011-.032.02-.047.029l-.058.032c-.017.008-.035.014-.054.021a.614.614 0 0 1-.095.029c-.025.006-.051.013-.077.016l-.052.004h-.003c-.017.001-.034.004-.051.004l-.014-.001a.772.772 0 0 1-.164-.019 2.493 2.493 0 0 0-.272-.047c-.063-.008-.132-.01-.2-.012-.029-.001-.057-.005-.086-.005-.693 0-.939.345-.939.667 0 .373.172.617 1.154.998.956.369 2.053.98 2.053 2.441.001 1.204-.886 2.423-2.865 2.423zm8.881-6.778a.547.547 0 0 1-.551.551h-.974a.543.543 0 0 0-.412.19l-.021.025a.544.544 0 0 0-.117.336v4.944a.547.547 0 0 1-.551.551h-.83a.543.543 0 0 1-.504-.33.544.544 0 0 1-.047-.221v-4.944a.534.534 0 0 0-.139-.361.543.543 0 0 0-.412-.19h-.964a.553.553 0 0 1-.551-.551v-.689a.555.555 0 0 1 .551-.55h4.971a.543.543 0 0 1 .504.33c.03.068.047.142.047.22v.689zm5.359 6.045a.555.555 0 0 1-.551.551h-3.762a.543.543 0 0 1-.504-.33.544.544 0 0 1-.047-.221v-6.735a.547.547 0 0 1 .551-.55h3.611a.546.546 0 0 1 .504.33c.03.068.047.142.047.22v.679a.547.547 0 0 1-.551.551h-1.69a.55.55 0 0 0-.412.188l-.021.026a.549.549 0 0 0 0 .672l.021.025c.019.021.04.038.062.057.011.009.019.02.031.028h.001c.091.065.2.103.319.103h1.538a.55.55 0 0 1 .551.551v.669a.547.547 0 0 1-.551.551h-1.538a.55.55 0 0 0-.55.551v.302a.549.549 0 0 0 .117.336l.021.025a.55.55 0 0 0 .412.19h1.841a.546.546 0 0 1 .504.33c.03.068.047.142.047.221v.68zm5.7 0a.547.547 0 0 1-.551.551h-3.722a.543.543 0 0 1-.504-.33.544.544 0 0 1-.047-.221v-6.735a.547.547 0 0 1 .551-.55h.82a.543.543 0 0 1 .504.33c.03.068.047.142.047.22v4.955a.549.549 0 0 0 .231.447c.09.064.2.104.319.104h1.8a.546.546 0 0 1 .504.33c.03.068.047.142.047.221v.678z"/><path fill="#fdc960" d="M23.525 33.008h-5.267c-.06 0-.122.005-.182.012.006.271-.046.655-.046.824 0 .143.075.876.063 1.316.402-.06.898.017 1.29.017h5.493c-.039-.263.003-.574.003-.836 0-.142-.075-.876-.063-1.316-.403.059-.897-.017-1.291-.017zm0-8.592h-5.267c-.06 0-.122.005-.182.011.006.271-.046.655-.046.825 0 .142.075.876.063 1.316.402-.06.898.017 1.29.017h5.493c-.039-.263.003-.574.003-.836 0-.142-.075-.876-.063-1.316-.403.059-.897-.017-1.291-.017z"/><path fill="#332195" d="M85.927 40.405H72.293a1.34 1.34 0 0 1-1.284-.976c-1.598-5.653-10.188-9.757-20.424-9.757-10.234 0-18.822 4.104-20.42 9.757a1.341 1.341 0 0 1-1.284.976H14.073a3.169 3.169 0 0 0-3.165 3.165v5.475a3.169 3.169 0 0 0 3.165 3.165h71.855a3.169 3.169 0 0 0 3.165-3.165V43.57a3.169 3.169 0 0 0-3.166-3.165zm1.337 8.641c0 .737-.599 1.337-1.337 1.337H14.073c-.737 0-1.336-.6-1.336-1.337V43.57c0-.737.599-1.337 1.336-1.337h14.809c1.408 0 2.66-.949 3.044-2.307 1.358-4.803 9.38-8.426 18.66-8.426 9.282 0 17.306 3.623 18.664 8.426a3.177 3.177 0 0 0 3.044 2.307h13.635c.737 0 1.337.599 1.337 1.337v5.476z"/><path fill="#332195" d="M13.238 38.133V26.798c0-1.658-.109-3.358 0-5.013.069-1.048.737-1.266 1.588-1.285 6.136-.136 12.291 0 18.428 0H84.237c.448 0 .953-.065 1.399 0 1.503.218 1.127 2.04 1.127 3.162V38.132c0 1.177 1.829 1.178 1.829 0V26.195c0-2.717.854-7.398-3.119-7.524-6.035-.191-12.107 0-18.144 0H15.255c-.598 0-1.22-.042-1.799.135-2.056.632-2.046 2.61-2.046 4.345v14.981c-.001 1.178 1.828 1.18 1.828.001zm73.525 15.935V74.03c0 1.406.197 2.971 0 4.367-.171 1.212-1.051 1.141-1.951 1.141H71.473V56.421a.928.928 0 0 0-.914-.914H29.441a.928.928 0 0 0-.914.914v7.362a.789.789 0 0 0 0 .252v15.504h-7.591c-2.138 0-4.368.182-6.501 0-1.447-.123-1.197-1.527-1.197-2.576V54.07c0-1.176-1.829-1.178-1.829 0v20.759c0 1.291-.129 2.654.026 3.94.387 3.213 4.176 2.598 6.466 2.598H79.688c1.982 0 3.993.098 5.974 0 2.31-.115 2.929-1.982 2.929-3.915V54.069c0-1.178-1.828-1.18-1.828-.001zM34.789 79.536h-4.432V67.177l7.494 12.359h-3.062zm13.657 0h-8.457l-9.633-15.885v-6.318h4.456l11.531 19.015 1.669 2.754a.873.873 0 0 0 .434.377v.057zm0-3.246-10.66-17.579-.836-1.378h11.496V76.29zm1.828 3.246V58.167a321787.46 321787.46 0 0 0 13.318 21.369H50.274zm19.371-2.089v2.089h-3.941a.951.951 0 0 0-.104-.236L53.054 59.169l-1.144-1.836h5.854L68.01 74.229l1.49 2.458a.986.986 0 0 0 .146.184l-.001.576zm0-4.046-9.087-14.986-.656-1.082h9.743v16.068z"/><path fill="#332195" d="M26.098 22.852c-.587-.405-1.479-.265-2.153-.265h-3.871c-.795 0-1.638-.08-2.431 0-1.166.117-1.443.963-1.443 1.98 0 .884-.28 2.334.193 3.145.457.782 1.336.701 2.105.701h6.792c.038 0 .077-.006.117-.011a.896.896 0 0 0 .275-.071c1.141-.403 1.023-1.54 1.023-2.582.002-.903.265-2.297-.607-2.897zm-1.223 3.733h-5.493c-.392 0-.888-.078-1.29-.017.012-.44-.063-1.174-.063-1.316 0-.17.051-.554.046-.825a1.89 1.89 0 0 1 .182-.011h5.267c.394 0 .887.077 1.29.017-.012.44.063 1.174.063 1.316.001.262-.041.573-.002.836zm15.497-3.733c-.588-.405-1.479-.265-2.153-.265h-3.871c-.796 0-1.638-.08-2.431 0-1.166.117-1.442.963-1.442 1.98 0 .884-.28 2.334.193 3.145.457.782 1.337.701 2.105.701h6.793c.037 0 .077-.006.116-.011a.91.91 0 0 0 .276-.071c1.141-.403 1.022-1.54 1.022-2.582 0-.903.263-2.297-.608-2.897zm-1.224 3.733h-5.493c-.392 0-.888-.078-1.29-.017.012-.44-.063-1.174-.063-1.316 0-.17.052-.554.046-.825a1.87 1.87 0 0 1 .182-.011H37.798c.394 0 .888.077 1.29.017-.012.44.063 1.174.063 1.316.001.262-.042.573-.003.836zm15.497-3.733c-.588-.405-1.479-.265-2.153-.265h-3.871c-.796 0-1.638-.08-2.431 0-1.166.117-1.442.963-1.442 1.98 0 .884-.281 2.334.193 3.145.457.782 1.337.701 2.105.701h6.793c.037 0 .077-.006.116-.011a.91.91 0 0 0 .276-.071c1.141-.403 1.022-1.54 1.022-2.582 0-.903.263-2.297-.608-2.897zm-1.224 3.733h-5.492c-.392 0-.889-.078-1.29-.017.012-.44-.063-1.174-.063-1.316 0-.17.052-.554.046-.825.06-.006.122-.011.182-.011H52.072c.394 0 .888.077 1.29.017-.012.44.063 1.174.063 1.316 0 .262-.042.573-.004.836zm15.497-3.733c-.588-.405-1.479-.265-2.153-.265h-3.871c-.796 0-1.638-.08-2.431 0-1.166.117-1.443.963-1.443 1.98 0 .884-.28 2.334.193 3.145.457.782 1.337.701 2.105.701h6.792c.038 0 .077-.006.117-.011a.896.896 0 0 0 .275-.071c1.141-.403 1.023-1.54 1.023-2.582.001-.903.264-2.297-.607-2.897zm-1.224 3.733h-5.492c-.393 0-.889-.078-1.29-.017.013-.44-.063-1.174-.063-1.316 0-.17.052-.554.046-.825a1.87 1.87 0 0 1 .182-.011H66.345c.393 0 .887.077 1.29.017-.012.44.063 1.174.063 1.316 0 .262-.043.573-.004.836zm15.497-3.733c-.588-.405-1.479-.265-2.153-.265h-3.871c-.796 0-1.638-.08-2.431 0-1.166.117-1.443.963-1.443 1.98 0 .884-.28 2.334.193 3.145.456.782 1.336.701 2.105.701h6.793c.038 0 .077-.006.117-.011a.896.896 0 0 0 .275-.071c1.141-.403 1.022-1.54 1.022-2.582.001-.903.265-2.297-.607-2.897zm-1.224 3.733h-5.493c-.392 0-.888-.078-1.29-.017.012-.44-.063-1.174-.063-1.316 0-.17.051-.554.046-.825a1.87 1.87 0 0 1 .182-.011H80.617c.394 0 .888.077 1.29.017-.012.44.063 1.174.063 1.316.001.262-.041.573-.003.836zm1.224 4.859c-.588-.404-1.479-.264-2.153-.264h-3.871c-.796 0-1.638-.08-2.431 0-1.166.117-1.443.963-1.443 1.98 0 .884-.28 2.334.193 3.145.456.782 1.336.701 2.105.701h6.793c.038 0 .077-.006.117-.012a.925.925 0 0 0 .275-.07c1.141-.403 1.022-1.54 1.022-2.582.001-.904.265-2.298-.607-2.898zm-1.224 3.733h-5.493c-.392 0-.888-.078-1.29-.017.012-.44-.063-1.174-.063-1.316 0-.169.051-.554.046-.824.061-.006.122-.012.182-.012H80.617c.394 0 .888.077 1.29.017-.012.44.063 1.174.063 1.316.001.262-.041.573-.003.836zm-55.869-3.733c-.587-.404-1.479-.264-2.153-.264h-3.871c-.795 0-1.638-.08-2.431 0-1.166.117-1.443.963-1.443 1.98 0 .884-.28 2.334.193 3.145.457.782 1.336.701 2.105.701h6.792c.038 0 .077-.006.117-.012a.925.925 0 0 0 .275-.07c1.141-.403 1.023-1.54 1.023-2.582.002-.904.265-2.298-.607-2.898zm-1.223 3.733h-5.493c-.392 0-.888-.078-1.29-.017.012-.44-.063-1.174-.063-1.316 0-.169.051-.554.046-.824.061-.006.123-.012.182-.012h5.267c.394 0 .887.077 1.29.017-.012.44.063 1.174.063 1.316.001.262-.041.573-.002.836zm11.573 6.575zm-.068 2.351a.562.562 0 0 0 0 0zm.089-.136zm1.87-.085a.54.54 0 0 0 0 0z"/><path fill="#332195" d="M40.264 39.224a.546.546 0 0 0-.313-.098h-.83a.543.543 0 0 0-.504.33.543.543 0 0 0-.047.22v1.74a.534.534 0 0 1-.05.226l.003-.005-.003.005a.518.518 0 0 1-.068.11l-.021.026a.58.58 0 0 1-.093.085l-.006.006.006-.006a.543.543 0 0 1-.319.104H36.88a.543.543 0 0 1-.319-.104l.006.006-.006-.006a.576.576 0 0 1-.183-.221c0-.002-.002-.003-.003-.005l.003.005a.549.549 0 0 1-.049-.226v-1.74a.555.555 0 0 0-.551-.55h-.82a.543.543 0 0 0-.504.33.543.543 0 0 0-.047.22v6.735a.555.555 0 0 0 .551.551h.82a.543.543 0 0 0 .504-.33.544.544 0 0 0 .047-.221v-2.083c0-.08.018-.156.049-.226 0 .002-.002.003-.003.005l.003-.005a.562.562 0 0 1 .183-.221l.006-.005-.006.005a.55.55 0 0 1 .319-.103h1.139a.55.55 0 0 1 .319.103l-.006-.005.006.005a.626.626 0 0 1 .093.085l.021.026c.026.034.05.07.068.11 0 .002.002.003.003.005l-.003-.005a.549.549 0 0 1 .049.226v2.083a.555.555 0 0 0 .551.551h.83a.546.546 0 0 0 .504-.33.544.544 0 0 0 .047-.221v-6.735a.54.54 0 0 0-.047-.22.538.538 0 0 0-.19-.232zm4.51-.21c-2.164 0-3.676 1.682-3.676 4.09 0 2.337 1.47 3.969 3.576 3.969 1.83 0 3.677-1.268 3.677-4.1-.001-2.33-1.472-3.959-3.577-3.959zm-.051 6.298c-1.13 0-1.644-1.155-1.644-2.228 0-1.065.433-2.309 1.654-2.309 1.13 0 1.644 1.16 1.644 2.238 0 1.145-.511 2.299-1.654 2.299zm13.097-4.206c.001-.001.001 0 0 0zm-2.301-.086a.628.628 0 0 0 0 0z"/><path fill="#332195" d="M59.519 39.224a.543.543 0 0 0-.313-.098h-4.971a.546.546 0 0 0-.504.33.543.543 0 0 0-.047.22v.689a.555.555 0 0 0 .551.551h.964c.119 0 .228.039.319.104l-.006-.006.006.006a.576.576 0 0 1 .093.085l.021.026c.026.034.05.071.068.11l.003.005-.003-.005c.032.069.05.145.05.226v4.944a.555.555 0 0 0 .551.551h.83a.546.546 0 0 0 .504-.33.544.544 0 0 0 .047-.221v-4.944c0-.081.018-.157.049-.226l-.003.005c0-.002.002-.003.003-.005a.544.544 0 0 1 .09-.136.5.5 0 0 1 .093-.085l.006-.006-.006.006c.09-.065.2-.104.319-.104h.974a.55.55 0 0 0 .551-.551v-.689a.55.55 0 0 0-.239-.452z"/><path fill="#332195" d="M57.731 41.241a.593.593 0 0 0 0 0zm-2.099-.11a.544.544 0 0 0 0 0zm6.591.1a.544.544 0 0 0 0 0zm.151.644c-.022-.019-.043-.036-.062-.057.019.022.04.039.062.057zm-.083-.082zM62.411 41.909l-.006-.005z"/><path fill="#332195" d="M64.878 45.28a.546.546 0 0 0-.313-.098h-1.841a.543.543 0 0 1-.319-.104l.006.005-.006-.005a.582.582 0 0 1-.093-.086l-.022-.026a.614.614 0 0 1-.068-.11c0-.002-.002-.003-.003-.005l.003.005a.549.549 0 0 1-.049-.226v-.302c0-.08.018-.156.049-.226 0 .002-.002.003-.003.005l.003-.005a.518.518 0 0 1 .09-.136.576.576 0 0 1 .093-.085l.006-.005-.006.005a.55.55 0 0 1 .319-.103h1.538a.555.555 0 0 0 .551-.551v-.669a.547.547 0 0 0-.238-.453.55.55 0 0 0-.313-.098h-1.538a.545.545 0 0 1-.313-.098l-.006-.005c-.011-.008-.02-.02-.031-.029-.022-.018-.043-.035-.062-.057l-.022-.026a.651.651 0 0 1-.068-.11c0-.002-.002-.003-.003-.005l.003.005a.549.549 0 0 1 0-.452c0 .002-.002.003-.003.005l.003-.005a.544.544 0 0 1 .09-.136.533.533 0 0 1 .093-.085l.006-.005-.006.005a.55.55 0 0 1 .319-.103h1.69a.547.547 0 0 0 .504-.331.543.543 0 0 0 .047-.22v-.679a.547.547 0 0 0-.551-.55h-3.611a.543.543 0 0 0-.504.33.543.543 0 0 0-.047.22v6.735a.547.547 0 0 0 .551.551h3.762a.546.546 0 0 0 .504-.33.544.544 0 0 0 .047-.221v-.679a.544.544 0 0 0-.238-.452zM62.405 41.904v-.001.001z"/><path fill="#332195" d="M62.405 41.903c-.011-.008-.02-.019-.031-.028.01.009.019.021.031.028zm-.114 3.064c0-.001 0 0 0 0zm.021-1zm-.089.136a.518.518 0 0 0 0 0zm8.355 1.177a.546.546 0 0 0-.313-.098h-1.8a.543.543 0 0 1-.319-.104l.006.005-.006-.005a.582.582 0 0 1-.093-.086l-.022-.026a.614.614 0 0 1-.068-.11l-.003-.005.003.005a.549.549 0 0 1-.049-.226v-4.955a.547.547 0 0 0-.551-.55h-.82a.543.543 0 0 0-.504.33.543.543 0 0 0-.047.22v6.735a.547.547 0 0 0 .551.551h3.722a.546.546 0 0 0 .504-.33.544.544 0 0 0 .047-.221v-.679a.544.544 0 0 0-.238-.451zM68.032 44.967c0-.001 0 0 0 0zM49.063 42.373l.006.009-.003-.006zM49.054 42.355l.002.004v-.001zM49.417 42.853l-.006-.006.032.033-.004-.004-.022-.023zm-.48-.778-.001-.003.008.026v-.002a.172.172 0 0 1-.007-.021zM49.684 43.094l.007.006-.004-.003zM49.67 43.084l.011.008-.007-.005zM49.973 43.296l.009.006-.002-.001z"/><path fill="#332195" d="M51.688 42.277c-.982-.38-1.154-.625-1.154-.998 0-.322.247-.667.939-.667.029 0 .057.004.086.005.068.002.137.004.2.012a2.493 2.493 0 0 1 .272.047c.055.012.11.017.164.019h-.001l.06-.001h.008l.052-.004.015-.003-.015.003c.026-.004.051-.01.077-.016a.953.953 0 0 0 .095-.029l.054-.021.058-.032c.016-.009.032-.018.047-.029a.676.676 0 0 0 .051-.038c.016-.012.031-.026.046-.039.014-.014.029-.028.042-.043a.858.858 0 0 0 .046-.056c.008-.01.017-.019.024-.03l.006-.011a.812.812 0 0 0 .058-.104l-.004.008a.768.768 0 0 0 .061-.185c.003-.018.002-.035.004-.053.005-.04.011-.081.009-.121-.001-.023-.007-.045-.01-.068-.004-.035-.007-.069-.015-.103a.837.837 0 0 0-.061-.16l-.001-.002c-.011-.02-.025-.037-.037-.056-.018-.028-.035-.058-.056-.084-.019-.023-.042-.041-.064-.062-.02-.019-.038-.039-.06-.056-.028-.022-.06-.037-.09-.055-.02-.011-.036-.024-.057-.033-.018-.009-.038-.012-.057-.019-.037-.013-.073-.028-.111-.036h-.002.002c.038.008.074.023.111.036-.037-.013-.073-.029-.111-.036l-.011-.001a4.215 4.215 0 0 0-.4-.058l-.034-.003a5.156 5.156 0 0 0-.408-.019h-.012c-1.551 0-2.677.972-2.677 2.31 0 .244.036.472.107.684l.002.007a2.003 2.003 0 0 0 .127.298l.002.003a2.138 2.138 0 0 0 .373.5c.072.072.15.143.235.21l.007.006a.031.031 0 0 1 .006.004c.06.047.127.091.194.136.022.015.041.031.063.045l.028.018.007.005c.095.059.196.115.303.169l.028.013.031.016c.184.091.384.175.603.253.998.384 1.08.698 1.08 1.039 0 .509-.406.814-1.086.814a2.791 2.791 0 0 1-.805-.125.685.685 0 0 0-.128-.027l-.053-.004-.05-.003-.024.001c-.022 0-.042.002-.063.004a.897.897 0 0 0-.127.024l-.034.011a.685.685 0 0 0-.158.072c-.005.003-.011.005-.015.009-.022.013-.041.029-.061.044a.678.678 0 0 0-.087.079l-.046.053c-.011.014-.023.027-.033.042a.92.92 0 0 0-.062.107l.003-.006c-.001.004-.004.007-.006.011l-.003.006a.75.75 0 0 0-.054.164c-.007.031-.007.061-.01.092-.002.025-.007.05-.007.075 0 .037.007.074.013.11.003.019.002.038.007.056.012.055.03.107.054.158.004.01.011.017.016.027-.004-.009-.011-.017-.015-.026.007.014.017.026.024.041.019.034.037.069.061.1.014.019.032.034.048.051.022.023.042.049.067.07.02.017.044.03.066.045.024.017.046.035.072.049h.001c.05.027.103.048.158.063l.06.014.06.014c.057.014.113.029.171.041.065.013.13.023.195.034l.105.018c.091.013.181.022.27.029l.031.003c.101.008.201.012.298.012 1.979 0 2.866-1.218 2.866-2.425 0-1.462-1.098-2.073-2.054-2.442zm1.213-2.72v.001c-.007-.013-.016-.024-.024-.037.008.013.017.023.024.036z"/><path fill="#332195" d="M49.881 43.233c.024.016.045.034.07.049l-.006-.004c-.023-.015-.042-.031-.064-.045zM52.26 40.693h.003-.002zM48.864 41.793c.017.096.042.189.072.279l-.001-.003a1.96 1.96 0 0 1-.071-.276zm1.822 1.861a5.002 5.002 0 0 1-.344-.155h-.001c.11.054.224.106.345.155zM49.189 46.558l.001.001-.001-.001zM49.056 42.359l.007.014-.007-.014c0-.001 0 0 0 0zM49.681 43.092l.003.002.003.003z"/><path fill="#332195" d="m49.951 43.282.022.014-.028-.018.006.004zm.33.187.03.014-.028-.013-.002-.001zm.06.03c.001 0 .001 0 0 0l-.03-.015.03.015zm-.813 3.417zm2.667-6.221.014.001c.017 0 .034-.003.051-.004h-.005c-.02.003-.039.003-.06.003zM52.255 40.693h.006z"/></svg>