<svg xmlns="http://www.w3.org/2000/svg" fill-rule="evenodd" clip-rule="evenodd" image-rendering="optimizeQuality" shape-rendering="geometricPrecision" text-rendering="geometricPrecision" viewBox="0 0 6.827 6.827"><path fill="none" d="M0 0h6.827v6.827H0z"/><path fill="none" d="M.853.853h5.12v5.12H.853z"/><g><path fill="#ffa726" fill-rule="nonzero" d="M.936 2.377h1.535l.002-.001.001.001h.005v.007l.323.41.33-.418.001.001h.1a.078.078 0 0 0 .055-.023.078.078 0 0 0 .023-.055v-1.1a.078.078 0 0 0-.023-.056.078.078 0 0 0-.055-.023H.936a.078.078 0 0 0-.055.023.078.078 0 0 0-.023.056v1.1a.078.078 0 0 0 .079.079z"/><path fill="#fb8c00" fill-rule="nonzero" d="m2.471 2.377.002-.001.006.001.323.418.33-.419.001.001h-.662z"/><path fill="#039be5" fill-rule="nonzero" d="M5.636 5.707H3.16l-.012-.094-.226-1.842v-.026a.809.809 0 0 1 .1-.311.376.376 0 0 1 .218-.183c.028-.008.619-.011 1.205-.011.586 0 1.177.003 1.205.011a.376.376 0 0 1 .22.183c.048.083.084.19.099.31v.027l-.227 1.842-.011.094h-.095z"/><path fill="#0277bd" fill-rule="nonzero" d="M5.403 2.185a.955.955 0 0 1-.958.958.955.955 0 0 1-.958-.958.955.955 0 0 1 .958-.958.955.955 0 0 1 .958.958z"/><path fill="#fff59d" fill-rule="nonzero" d="M2.013 2.07v-.148h.147v.147h-.147zm.134-.198h-.134v-.035c0-.044.007-.08.021-.107a.326.326 0 0 1 .086-.094.614.614 0 0 0 .077-.069.09.09 0 0 0 .02-.056.096.096 0 0 0-.035-.074.134.134 0 0 0-.092-.03.14.14 0 0 0-.094.032.17.17 0 0 0-.052.097l-.134-.017a.224.224 0 0 1 .08-.159.283.283 0 0 1 .194-.065.29.29 0 0 1 .2.066.2.2 0 0 1 .076.154.17.17 0 0 1-.028.092.604.604 0 0 1-.117.118.225.225 0 0 0-.058.063.209.209 0 0 0-.01.084z"/></g></svg>