<svg xmlns="http://www.w3.org/2000/svg" viewBox="0 0 80 80"><path fill="#54C0EB" d="M70.497 48.003C70.497 64.853 56.817 78.5 40 78.5c-16.928 0-30.497-13.738-30.497-30.497 0-16.84 13.648-30.497 30.497-30.497 16.84 0 30.497 13.657 30.497 30.497z"/><path fill="#F9B54C" d="M51.79 61.366c0-.594-.487-1.081-1.081-1.081H41.06c-1.89 0-3.706.685-5.125 1.931s-3.244 1.931-5.126 1.931h-.776v11.736h3.418c.99 0 1.93.388 2.632 1.09a3.725 3.725 0 0 0 2.625 1.089h9.862l2.047-12.891-.594-1.09a2.969 2.969 0 0 0 1.766-2.715z"/><path fill="#FFD05B" d="M51.79 61.371c0 .144-.01.299-.033.432a2.713 2.713 0 0 1-.1.431c-.044.133-.088.265-.154.398a2.515 2.515 0 0 1-.21.376 2.766 2.766 0 0 1-.277.354c-.088.1-.177.188-.277.266-.01.022-.022.033-.033.033-.1.078-.199.155-.31.221a2.438 2.438 0 0 1-.376.2v.01l.598 1.073-2.047 12.898h-9.867c-1.006 0-1.936-.43-2.666-1.128l-.1-.1c-1.305-1.172-2.19-2.732-2.19-4.48V66.98c0-.188.012-.388.034-.576.143-1.581.907-3.053 2.09-4.126.022-.033.056-.055.078-.077a.153.153 0 0 1 .044-.033c.155-.144.32-.277.498-.387a7.187 7.187 0 0 1 3.108-1.35c.476-.1.962-.144 1.46-.144h9.657c.089 0 .188.011.266.045.055 0 .1.022.155.044.188.077.354.221.464.387a.624.624 0 0 1 .1.188.527.527 0 0 1 .066.2c.011.076.022.143.022.22z"/><path fill="#E6E9EE" d="M31.05 64.213v11.604a1.65 1.65 0 0 1-1.65 1.65h-5.093V62.564H29.4c.908 0 1.65.734 1.65 1.65z"/><path fill="#F1543F" d="M27.677 63.185V76.85c0 .22-.038.429-.124.62-.238.6-.838 1.029-1.524 1.029h-2.63c-6.034-3.926-10.589-9.921-12.657-16.974h15.287c.686 0 1.286.43 1.524 1.04.086.19.124.4.124.619z"/><path fill="#E54433" d="M27.677 63.185v4.431c0-.219-.038-.429-.124-.62a1.642 1.642 0 0 0-1.524-1.038h-13.59a29.538 29.538 0 0 1-1.697-4.432h15.287c.686 0 1.286.43 1.524 1.04.086.19.124.4.124.619z"/><path fill="#A36F55" d="M42.425 34.366h5.993v44.131h-5.993z"/><path fill="#915946" d="M42.43 34.368h2.993V78.5H42.43z"/><path fill="#3F596B" d="M67.323 48.713H23.522a2 2 0 0 1-2-2v-22.93a2 2 0 0 1 2-2h43.8a2 2 0 0 1 2 2v22.93a2 2 0 0 1-2 2z"/><path fill="#324A5E" d="M39.938 45.89H24.345V24.61h15.593a1.412 1.412 0 1 0 0-2.824H23.404c-1.04 0-1.882.842-1.882 1.882v23.163c0 1.04.843 1.882 1.882 1.882h16.534a1.412 1.412 0 1 0 0-2.824z"/><path fill="#FFF" d="M24.346 24.606H66.5V45.89H24.346z"/><path fill="#2B3B4E" d="M37.717 37.592a4.409 4.409 0 0 1-2.104 1.782l1.23 1.356a.551.551 0 0 1 .169.406.527.527 0 0 1-.169.419.587.587 0 0 1-.432.182.558.558 0 0 1-.448-.224l-1.524-1.817a5.37 5.37 0 0 1-.839.055c-.978 0-1.836-.214-2.573-.643a4.396 4.396 0 0 1-1.705-1.776c-.402-.754-.611-1.621-.63-2.6.019-.978.228-1.846.63-2.601.4-.754.968-1.347 1.705-1.775.737-.43 1.595-.644 2.573-.644s1.833.215 2.566.644a4.457 4.457 0 0 1 1.706 1.782c.405.76.617 1.625.636 2.594-.02 1.09-.282 2.044-.79 2.86zm-2.173.467c.55-.335.97-.792 1.258-1.37.288-.578.434-1.23.434-1.957s-.146-1.38-.434-1.958a3.315 3.315 0 0 0-1.258-1.37c-.551-.336-1.198-.503-1.944-.503-.755 0-1.405.167-1.95.503a3.322 3.322 0 0 0-1.252 1.37c-.289.578-.433 1.231-.433 1.958s.144 1.38.433 1.957.706 1.035 1.252 1.37c.545.336 1.195.504 1.95.504.745 0 1.393-.168 1.944-.504zM48.4 29.971a.621.621 0 0 1 .189.454v5.524c0 .83-.196 1.53-.589 2.104a3.6 3.6 0 0 1-1.51 1.279 4.574 4.574 0 0 1-3.83 0 3.606 3.606 0 0 1-1.51-1.28c-.392-.573-.588-1.274-.588-2.103v-5.524c0-.176.06-.329.182-.454.12-.126.27-.189.447-.189s.33.063.455.19a.62.62 0 0 1 .188.453v5.566c0 .558.129 1.034.385 1.426.257.39.595.685 1.014.88.42.196.867.294 1.342.294.476 0 .923-.098 1.343-.294.419-.195.757-.49 1.013-.88.257-.392.384-.868.384-1.426v-5.566c0-.176.062-.329.182-.454a.595.595 0 0 1 .448-.189.62.62 0 0 1 .455.19zm3.914 0a.617.617 0 0 1 .19.454v8.628a.595.595 0 0 1-.19.447.635.635 0 0 1-.454.182.612.612 0 0 1-.448-.182.61.61 0 0 1-.181-.447v-8.628c0-.176.06-.329.18-.454a.597.597 0 0 1 .45-.189c.175 0 .327.063.453.19zm9.662 8.627c.116.117.175.259.175.426 0 .169-.059.307-.175.42a.595.595 0 0 1-.427.167h-6.222a.777.777 0 0 1-.573-.237.781.781 0 0 1-.238-.573c0-.206.056-.378.168-.517l5.845-7.216h-5.384a.584.584 0 0 1-.426-.174.584.584 0 0 1-.174-.427c0-.168.057-.311.174-.433a.574.574 0 0 1 .426-.182h6.069c.26 0 .468.084.622.251a.88.88 0 0 1 .231.616.792.792 0 0 1-.063.293.967.967 0 0 1-.161.267l-5.775 7.145h5.481c.169 0 .31.057.427.174z"/><path fill="#F1543F" d="m29.88 5.815 2.249 8.674a.634.634 0 0 0 .773.454h.001c.46-.12.93.157 1.05.617l.414 1.6a.338.338 0 0 0 .632.061l1.371-2.861a.861.861 0 0 1 .56-.461l9.555-2.478a.634.634 0 0 0 .454-.772L44.69 1.975a.634.634 0 0 0-.772-.455L30.334 5.042a.634.634 0 0 0-.454.773z"/><path fill="#E54433" d="m36.265 14.585-1.267 2.64a.335.335 0 0 1-.627-.064l-.415-1.599a.861.861 0 0 0-1.05-.617l-.005.002a.636.636 0 0 1-.77-.458l-2.248-8.673a.632.632 0 0 1 .45-.773l2.488-.645a.633.633 0 0 0-.456.775l2.248 8.673a.638.638 0 0 0 .776.456.854.854 0 0 1 .876.283z"/><path fill="#FFF" d="m38.312 9.65-1.06-3.324-.262-1.01a.614.614 0 0 1 .065-.485.6.6 0 0 1 .393-.292.62.62 0 0 1 .765.461l.262 1.01.688 3.419a.423.423 0 0 1-.052.307.42.42 0 0 1-.269.18.45.45 0 0 1-.329-.025.388.388 0 0 1-.201-.241zm1.564 1.397a.718.718 0 0 1-.512.88.692.692 0 0 1-.541-.08.706.706 0 0 1-.327-.442.714.714 0 0 1 .072-.54.715.715 0 0 1 .436-.325.718.718 0 0 1 .546.071l.002.007a.686.686 0 0 1 .324.429z"/><path fill="#75D38F" d="m64.573 4.267 2.249 8.674a.632.632 0 0 1-.456.774.86.86 0 0 0-.616 1.048l.415 1.602c.08.304-.264.54-.522.361l-2.59-1.834a.853.853 0 0 0-.717-.132l-9.55 2.477a.636.636 0 0 1-.774-.455l-2.247-8.67a.637.637 0 0 1 .447-.778l13.586-3.523a.637.637 0 0 1 .775.456z"/><path fill="#65C97A" d="m55.208 16.608-2.422.628a.636.636 0 0 1-.774-.455l-2.247-8.668a.637.637 0 0 1 .447-.779l2.49-.646a.638.638 0 0 0-.454.78l2.248 8.67a.64.64 0 0 0 .712.47z"/><path fill="#FFF" d="M59.236 12.938c.18.106.289.248.339.441s.027.379-.08.559c-.099.169-.25.28-.451.332a.696.696 0 0 1-.54-.075.709.709 0 0 1-.34-.45.69.69 0 0 1 .081-.55c.1-.17.25-.28.435-.328a.707.707 0 0 1 .556.07zm.875-4.684c.072.278.079.545.04.779a1.984 1.984 0 0 1-.231.625 4.907 4.907 0 0 1-.414.618c-.227.301-.385.557-.482.771-.084.192-.097.42-.034.663a.436.436 0 0 1-.077.397.537.537 0 0 1-.34.24.53.53 0 0 1-.424-.042.453.453 0 0 1-.251-.311c-.081-.311-.105-.61-.05-.884.054-.274.13-.5.24-.7.11-.198.266-.427.45-.681.203-.259.342-.483.423-.656a.703.703 0 0 0 .046-.479c-.172-.663-.694-.878-1.602-.643a2.65 2.65 0 0 0-.642.257 2.104 2.104 0 0 0-.51.383.53.53 0 0 1-.679.113.5.5 0 0 1-.243-.313c-.05-.194.018-.382.179-.558.24-.25.5-.453.767-.602.274-.152.583-.277.936-.369.706-.183 1.333-.148 1.853.094.531.248.886.685 1.045 1.298z"/><path fill="#FFD05B" d="M56.385 8.394c1.307 4.35-1.269 8.888-5.64 10.022a7.937 7.937 0 0 1-4.172-.05l-3.148 2.033a.376.376 0 0 1-.58-.34l.25-3.733a7.993 7.993 0 0 1-2.065-3.63 7.976 7.976 0 0 1 6.02-9.792c4.01-.876 8.15 1.553 9.335 5.49z"/><path fill="#F9B54C" d="M44.941 11.683a7.976 7.976 0 0 0 2.066 3.632l-.206 3.115c-.078-.016-.149-.044-.226-.06l-3.147 2.032a.38.38 0 0 1-.583-.343l.249-3.73a8.07 8.07 0 0 1-2.067-3.632c-1.132-4.367 1.589-8.82 6.024-9.797a7.566 7.566 0 0 1 1.7-.175c-3.076 1.739-4.738 5.378-3.81 8.958z"/><path fill="#FFF" d="m47.858 13.626-2.485-1.461a.773.773 0 1 1 .784-1.334l1.819 1.069 2.498-4.246a.773.773 0 1 1 1.333.784l-2.89 4.914a.773.773 0 0 1-1.059.274z"/><path fill="#EFF1F4" d="M51.533 7.38a.773.773 0 0 0-1.06.274l-1.662 2.826a.774.774 0 1 0 1.334.785l1.662-2.827a.773.773 0 0 0-.274-1.059z"/><path fill="#FFD05B" d="M51.963 64.032h-4.88a1.809 1.809 0 0 0 0 3.617h4.88a1.808 1.808 0 0 0 0-3.617zm.862 3.617h-5.741a1.809 1.809 0 1 0 0 3.617h5.74a1.808 1.808 0 0 0 0-3.617zm-1.92 3.617h-3.821a1.809 1.809 0 1 0 0 3.617h3.82a1.809 1.809 0 1 0 0-3.617zm-1.45 3.617h-2.371a1.809 1.809 0 1 0 0 3.617h2.37a1.808 1.808 0 1 0 0-3.617z"/><path fill="#F9B54C" d="M48.813 67.648h-1.725a1.808 1.808 0 1 1 0-3.617h1.725a1.808 1.808 0 1 0 0 3.617zM48.813 71.265h-1.725a1.808 1.808 0 1 1 0-3.617h1.725a1.808 1.808 0 1 0 0 3.617zm0 3.617h-1.725a1.808 1.808 0 1 1 0-3.617h1.725a1.808 1.808 0 1 0 0 3.617zM48.813 78.5h-1.725a1.808 1.808 0 1 1 0-3.617h1.725a1.808 1.808 0 1 0 0 3.617z"/><path fill="#FFD05B" d="M51.79 70.727c0 .143-.01.298-.033.431a2.713 2.713 0 0 1-.1.431c-.044.133-.088.266-.154.399a2.515 2.515 0 0 1-.21.376 2.758 2.758 0 0 1-.277.354c-.088.1-.177.188-.277.265-.01.022-.022.033-.033.033-.1.078-.199.155-.31.222a2.438 2.438 0 0 1-.376.199v.01a2.906 2.906 0 0 1-1.205.255H43.67c.431 3.474-1.35 4.779-4.491 4.735l-5.398-2.677c.143-1.582.907-3.053 2.09-4.126.022-.022.045-.034.067-.056.177-.155.365-.298.553-.442a7.667 7.667 0 0 1 3.108-1.35c.476-.1.962-.144 1.46-.144h9.657c.089 0 .188.012.266.045.055 0 .1.022.155.044.188.077.354.221.464.387a.624.624 0 0 1 .1.188.7.7 0 0 1 .066.2c.011.077.022.143.022.22z"/><path fill="#F9B54C" d="M50.985 73.068c-.594.652-1.543.999-2.401.982a115.43 115.43 0 0 1-4.473.058 5.85 5.85 0 0 1-.1 1.601c-.14.685-.47 1.362-1.006 1.857-.529.487-1.205.743-1.857.85a6.876 6.876 0 0 1-1.973.025c.644-.074 1.288-.165 1.882-.372.594-.198 1.147-.495 1.527-.932.792-.875.833-2.17.685-3.384a.4.4 0 0 1 .355-.445c.016-.009.033-.009.05-.009 1.633-.016 3.276.008 4.91.058.775.074 1.494-.124 2.104-.61.603-.463 1.007-1.206 1.106-2.023.108.826-.206 1.709-.809 2.344z"/></svg>