<svg xmlns="http://www.w3.org/2000/svg" enable-background="new 0 0 64 64" viewBox="0 0 64 64"><path fill="#2d7abe" d="M32,1C14.9,1,1,14.9,1,32c0,17.1,13.9,31,31,31s31-13.9,31-31C63,14.9,49.1,1,32,1z M44.4,51.6
	c-0.8,0.8-1.9,1.3-3,1.3H22.7c-2.4,0-4.3-1.9-4.3-4.3c0-1.2,0.5-2.3,1.3-3c0.8-0.8,1.9-1.3,3-1.3h18.7c2.4,0,4.3,1.9,4.3,4.3
	C45.6,49.8,45.1,50.9,44.4,51.6z M23.9,28.9c0.4-0.9,1-1.6,1.7-2.1c3.3-2.2,6.1-5,8.4-8.2l2-3c0.7-1.1,2.2-1.3,3.2-0.6
	c1.1,0.7,1.3,2.2,0.6,3.2l-2,2.9c-2.3,3.3-3.6,7.1-4.7,10.9c-0.1,0.5-0.4,1-0.7,1.5c-1.7,2.5-5.4,2.9-7.6,0.6
	C23.5,32.8,23.2,30.7,23.9,28.9z M45.3,31.1c0-4.6-1.8-8.7-4.8-11.8l0.3-0.4c0.5-0.8,0.7-1.7,0.5-2.6c-0.2-0.9-0.7-1.7-1.4-2.2
	c-0.8-0.5-1.7-0.7-2.6-0.5c-0.9,0.2-1.7,0.7-2.2,1.4l-0.3,0.4c-2-0.9-4.2-1.3-6.6-1.3c-9.4,0-17,7.6-17,17H7.9C7.9,17.8,18.7,7,32,7
	s24.1,10.8,24.1,24.1H45.3z M30.1,32.3c0.7-1,0.4-2.4-0.6-3.1c-1-0.7-2.4-0.4-3.1,0.6c-0.7,1-0.4,2.4,0.6,3.1
	C28,33.6,29.4,33.3,30.1,32.3z"/></svg>