<svg xmlns="http://www.w3.org/2000/svg" enable-background="new 0 0 260 260" viewBox="0 0 260 260"><path fill="#EDF5F9" d="M135.7430573 259h-11.4852448c-.4946899 0-.8949814-.4002991-.8949814-.894989 0-.4946594.4002914-.8949585.8949814-.8949585h11.4852448c.4946899 0 .894989.4002991.894989.8949585C136.6380463 258.5997009 136.2377472 259 135.7430573 259zM70.2060623 180.5767212H55.6460686c-6.6100731 0-11.9878044-5.3777313-11.9878044-11.9878082v-13.1860657c0-5.6233215-4.5745239-10.1978455-10.1969757-10.1978455H16.7276573c-4.4137077 0-8.0041056-3.5903931-8.0041056-8.0032349 0-4.4136963 3.5903978-8.0041046 8.0041056-8.0041046h32.2087021c12.7543068 0 23.1313286-10.3770142 23.1313286-23.1313171V81.5672073c0-5.6233292-4.5745239-10.1978531-10.1969795-10.1978531H39.9822159c-10.5815372 0-19.1904526-8.6089134-19.1904526-19.1904488v-11.142643c0-10.5824127 8.6089153-19.1913261 19.1904526-19.1913261h66.2772827c6.6091995 0 11.9869308 5.3777313 11.9869308 11.9878044v29.7781067c0 5.6233215 4.5745239 10.1978455 10.1969757 10.1978455h99.1974182c6.6092072 0 11.9869385 5.3777313 11.9869385 11.9869308v12.1634827c0 6.6100693-5.3777313 11.9878006-11.9869385 11.9878006h-51.4376068c-1.7558746 0-3.1839905 1.4281235-3.1839905 3.1839905s1.4281158 3.1848602 3.1839905 3.1848602h16.6086426c6.6092072 0 11.9869385 5.3777313 11.9869385 11.9869308v6.2386169c0 6.6100769-5.3777313 11.9878082-11.9869385 11.9878082h-66.0596466c-.4946899 0-.8949814-.4002838-.8949814-.8949738s.4002914-.8949738.8949814-.8949738h66.0596466c5.6224518 0 10.1969757-4.5745239 10.1969757-10.1978607v-6.2386169c0-5.6224518-4.5745239-10.1969757-10.1969757-10.1969757h-16.6086426c-2.7426147 0-4.973938-2.2313232-4.973938-4.9748154 0-2.7426147 2.2313232-4.9739456 4.973938-4.9739456h51.4376068c5.6224518 0 10.1969757-4.5745239 10.1969757-10.1978455V85.7956238c0-5.6224518-4.5745239-10.1969757-10.1969757-10.1969757h-99.1974182c-6.6091995 0-11.9869308-5.3777313-11.9869308-11.9878006V33.8327408c0-5.6233253-4.5745239-10.1978493-10.1969757-10.1978493H39.9822159c-9.5947895 0-17.4004974 7.8065815-17.4004974 17.401371v11.142643c0 9.5947876 7.8057079 17.4004936 17.4004974 17.4004936h21.8884926c6.6092033 0 11.9869347 5.3777313 11.9869347 11.9878082v24.4991379c0 13.7419205-11.1793556 24.9212799-24.9212837 24.9212799H16.7276573c-3.4260864 0-6.2141514 2.7880554-6.2141514 6.2141418s2.788065 6.2132874 6.2141514 6.2132874h16.7336311c6.6091995 0 11.9869308 5.3777313 11.9869308 11.987793v13.1860657c0 5.6233215 4.5745239 10.1978455 10.1978493 10.1978455h14.5599937c.4946823 0 .8949738.4002991.8949738.894989C71.1010361 180.1764221 70.7007446 180.5767212 70.2060623 180.5767212zM145.6498718 2.7899551h-1.4927979c-.4946899 0-.8949738-.4002926-.8949738-.8949776S143.662384 1 144.157074 1h1.4927979c.4946899 0 .8949738.4002926.8949738.8949776S146.1445618 2.7899551 145.6498718 2.7899551zM140.4277191 2.7899551h-18.9387436c-.4946899 0-.8949814-.4002926-.8949814-.8949776S120.9942856 1 121.4889755 1h18.9387436c.4946747 0 .8949738.4002926.8949738.8949776S140.9223938 2.7899551 140.4277191 2.7899551z"/><path fill="#EDF5F9" d="M62.617981 126.4340744c-.2289886 0-.4579773-.0874023-.6327782-.2621994l-4.0981941-4.0973206c-.1678085-.1678085-.2621994-.39505-.2621994-.6327744 0-.2377319.0943909-.4649734.2621994-.632782l4.0981941-4.0973206c.3496017-.3495941.9159546-.3495941 1.2655525 0l4.0973206 4.0973206c.3496017.3496017.3496017.9159546 0 1.2655563l-4.0973206 4.0973206C63.0759583 126.3466721 62.8469696 126.4340744 62.617981 126.4340744zM59.7853394 121.4417801l2.8326416 2.8317642 2.8317642-2.8317642-2.8317642-2.8317642L59.7853394 121.4417801zM186.1799469 152.1148529c-1.8135529 0-3.2888794-1.476181-3.2888794-3.2897339s1.4753265-3.2897491 3.2888794-3.2897491 3.2897339 1.4761963 3.2897339 3.2897491S187.9934998 152.1148529 186.1799469 152.1148529zM186.1799469 147.3253326c-.8268127 0-1.4989166.6729736-1.4989166 1.4997864 0 .8267975.6721039 1.4997864 1.4989166 1.4997864.8267975 0 1.4997864-.6729889 1.4997864-1.4997864C187.6797333 147.9983063 187.0067444 147.3253326 186.1799469 147.3253326zM206.9785614 112.540947c-1.4805603 0-2.6849365-1.2043762-2.6849365-2.6849365 0-1.4805527 1.2043762-2.6849289 2.6849365-2.6849289s2.6849213 1.2043762 2.6849213 2.6849289C209.6634827 111.3365707 208.4591217 112.540947 206.9785614 112.540947zM206.9785614 108.9610367c-.4938202 0-.894989.4011688-.894989.8949738 0 .4938126.4011688.8949814.894989.8949814.4938049 0 .8949738-.4011688.8949738-.8949814C207.8735352 109.3622055 207.4723663 108.9610367 206.9785614 108.9610367zM50.2377472 11.2284393c-1.7305222 0-3.1376648-1.4071417-3.1376648-3.1376648s1.4071426-3.1376657 3.1376648-3.1376657c1.730526 0 3.1376686 1.4071426 3.1376686 3.1376657S51.9682732 11.2284393 50.2377472 11.2284393zM50.2377472 6.7430639c-.7429008 0-1.3477097.6048088-1.3477097 1.3477106 0 .7429008.6048088 1.3477097 1.3477097 1.3477097.7429047 0 1.3477135-.6048088 1.3477135-1.3477097C51.5854607 7.3478727 50.9806519 6.7430639 50.2377472 6.7430639zM207.765152 20.8800373c-1.5059052 0-2.7303772-1.2244759-2.7303772-2.7295055 0-1.5050316 1.224472-2.7295065 2.7303772-2.7295065 1.5050354 0 2.7295074 1.2244749 2.7295074 2.7295065C210.4946594 19.6555614 209.2701874 20.8800373 207.765152 20.8800373zM207.765152 17.2109795c-.51828 0-.9404144.4212685-.9404144.9395523 0 .5182819.4221344.9395523.9404144.9395523.5182953 0 .9395599-.4212704.9395599-.9395523C208.7047119 17.6322479 208.2834473 17.2109795 207.765152 17.2109795zM19.0201626 84.3832397h-1.492794c-.4946842 0-.8949776-.4002914-.8949776-.8949814 0-.4946823.4002934-.8949738.8949776-.8949738h1.492794c.4946861 0 .8949776.4002914.8949776.8949738C19.9151402 83.9829483 19.5148487 84.3832397 19.0201626 84.3832397zM226.7039032 57.4902115H207.765152c-.4946747 0-.8949738-.4002914-.8949738-.8949776 0-.4946823.4002991-.8949776.8949738-.8949776h18.9387512c.4946747 0 .8949738.4002953.8949738.8949776C227.598877 57.08992 227.1985779 57.4902115 226.7039032 57.4902115zM174.200882 21.7662754c-.4946899 0-.894989-.4002914-.894989-.8949776V16.427c0-.4946842.4002991-.8949766.894989-.8949766.4946747 0 .8949738.4002924.8949738.8949766v4.4442978C175.0958557 21.365984 174.6955566 21.7662754 174.200882 21.7662754z"/><path fill="#EDF5F9" d="M171.9782867,19.5445633c-0.4938049,0-0.8949738-0.4002914-0.8949738-0.8949776
			c0-0.4938107,0.4002991-0.8949776,0.8949738-0.8949776l4.4443054-0.0008736c0.4938049,0,0.8949738,0.4002934,0.8949738,0.8949776
			c0,0.4938107-0.4002838,0.8949776-0.8949738,0.8949776L171.9782867,19.5445633z"/><path fill="#434A54" d="M205.4934082,50.550602v135.9973297c0,6.9598389-5.6420746,12.6019135-12.6019287,12.6019135H45.6811485
		c-6.9598503,0-12.6019249-5.6420746-12.6019249-12.6019135V50.550602c0-7.0033646,5.6773491-12.6807137,12.6807137-12.6807137
		h147.0527649C199.8160553,37.8698883,205.4934082,43.5472374,205.4934082,50.550602z"/><circle cx="185.989" cy="69.554" r="9.849" fill="#FFF" opacity=".1"/><path fill="#EDF5F9" d="M139.4269867,168.7060242c-0.4946899,0-0.894989-0.4002838-0.894989-0.8949738v-4.5308228
				c0-0.4946899,0.4002991-0.8949738,0.894989-0.8949738c0.4946747,0,0.8949738,0.4002838,0.8949738,0.8949738v4.5308228
				C140.3219604,168.3057404,139.9216614,168.7060242,139.4269867,168.7060242z"/><path fill="#EDF5F9" d="M137.1606903,166.4414978c-0.4938049,0-0.8949738-0.4002991-0.8949738-0.894989
				c0-0.4938049,0.4002991-0.8949738,0.8949738-0.8949738l4.5317078-0.0008698c0.4938049,0,0.8949738,0.4002838,0.8949738,0.8949738
				c0,0.4938202-0.4002991,0.8949738-0.8949738,0.8949738L137.1606903,166.4414978z"/><path fill="#FFF" d="M214.6133118,50.550602v135.9973297c0,6.9598389-5.6420746,12.6019135-12.6019287,12.6019135H54.8010521
			c-6.9598503,0-12.6019249-5.6420746-12.6019249-12.6019135V50.550602c0-7.0033646,5.6773491-12.6807137,12.6807137-12.6807137
			h147.0527649C208.9359589,37.8698883,214.6133118,43.5472374,214.6133118,50.550602z"/><path fill="#EDF5F9" d="M214.6149445,50.555851v135.9920197c0,6.9595337-5.6418152,12.6013489-12.6013641,12.6013489H54.7989578
			c-6.9595337,0-12.6013527-5.6418152-12.6013527-12.6013489v-0.3849945h61.5248299
			c53.8300095,0,97.4678421-43.6378479,97.4678421-97.4678497V37.8740883h0.7429047
			C208.9371185,37.8740883,214.6149445,43.5519066,214.6149445,50.555851z"/><path fill="#434A54" d="M236.1104279,134.4309998l-46.8432159,46.8429871
		c-1.4676666,1.4678802-3.4099121,2.3628693-5.477356,2.5241089l-10.0595398,0.7962189l-6.0471191,3.0312805l-2.5534973-2.5925293
		c-0.34021-0.2237396-0.5549927-0.6174774-0.5191498-1.0649719l1.4141235-17.935379
		c0.1699982-2.0674591,1.0649719-4.009491,2.5236816-5.4773712l46.8432007-46.8429871
		c2.2463989-2.2466202,5.8890228-2.2466202,8.1354218,0l12.5834503,12.5834427
		C238.3565979,128.5419769,238.3565979,132.1848145,236.1104279,134.4309998z"/><path fill="#FF6060" d="M214.6132813,66.7012482V50.5506287c0-7.0033798-5.6773529-12.6807404-12.6807251-12.6807404H54.8798904
		c-7.0033798,0-12.6807404,5.6773605-12.6807404,12.6807404v16.1506195H214.6132813z"/><path fill="#3FD0FC" d="M65.6879959,52.28619c0,3.189312-2.5880699,5.7773819-5.7772598,5.7773819
			c-3.1992645,0-5.7771301-2.5880699-5.7771301-5.7773819c0-0.692791,0.122139-1.365181,0.3565903-1.986824
			c0.8048553-2.2109528,2.924263-3.7903099,5.4205399-3.7903099c1.1208992,0,2.180481,0.3261223,3.066925,0.886322
			C64.608017,48.4142876,65.6879959,50.2282219,65.6879959,52.28619z"/><path fill="#FFF" d="M62.9776611,47.3953781c-0.8049774,2.2112007-2.924263,3.7905579-5.4206619,3.7905579
			c-1.1308517,0-2.1803551-0.3261185-3.066803-0.88657c0.8048553-2.2109528,2.924263-3.7903099,5.4205399-3.7903099
			C61.0316353,46.5090561,62.091217,46.8351784,62.9776611,47.3953781z" opacity=".4"/><path fill="#25BAF4" d="M65.6879959,52.28619c0,3.189312-2.5880699,5.7773819-5.7772598,5.7773819
			c-3.1992645,0-5.7771301-2.5880699-5.7771301-5.7773819c0-0.5094566,0.0610695-0.9985123,0.193531-1.4671707
			c0.6419182,2.4758797,2.8937912,4.3099632,5.5835991,4.3099632c2.6797371,0,4.9316101-1.8340836,5.5836029-4.3099632
			C65.6269226,51.2876778,65.6879959,51.7767334,65.6879959,52.28619z"/><path fill="#FFD372" d="M82.1832275,52.28619c0,3.189312-2.5880737,5.7773819-5.7772598,5.7773819
			c-3.1992645,0-5.7771301-2.5880699-5.7771301-5.7773819c0-0.692791,0.122139-1.365181,0.3565903-1.986824
			c0.8048553-2.2109528,2.924263-3.7903099,5.4205399-3.7903099c1.1208954,0,2.180481,0.3261223,3.066925,0.886322
			C81.1032486,48.4142876,82.1832275,50.2282219,82.1832275,52.28619z"/><path fill="#FFF" d="M79.4728928,47.3953781c-0.8049774,2.2112007-2.924263,3.7905579-5.4206619,3.7905579
			c-1.1308517,0-2.1803589-0.3261185-3.066803-0.88657c0.8048553-2.2109528,2.924263-3.7903099,5.4205399-3.7903099
			C77.5268631,46.5090561,78.5864487,46.8351784,79.4728928,47.3953781z" opacity=".4"/><path fill="#FFB85A" d="M82.1832275,52.28619c0,3.189312-2.5880737,5.7773819-5.7772598,5.7773819
			c-3.1992645,0-5.7771301-2.5880699-5.7771301-5.7773819c0-0.5094566,0.0610657-0.9985123,0.1935272-1.4671707
			c0.641922,2.4758797,2.8937912,4.3099632,5.5836029,4.3099632c2.6797333,0,4.9316101-1.8340836,5.5835953-4.3099632
			C82.1221542,51.2876778,82.1832275,51.7767334,82.1832275,52.28619z"/><path fill="#EDF5F9" d="M98.6784515,52.28619c0,3.189312-2.5880661,5.7773819-5.7772522,5.7773819
			c-3.1992645,0-5.7771378-2.5880699-5.7771378-5.7773819c0-0.692791,0.1221466-1.365181,0.3565979-1.986824
			c0.8048553-2.2109528,2.924263-3.7903099,5.4205399-3.7903099c1.1208954,0,2.180481,0.3261223,3.066925,0.886322
			C97.5984726,48.4142876,98.6784515,50.2282219,98.6784515,52.28619z"/><path fill="#FFF" d="M95.9681244,47.3953781c-0.8049774,2.2112007-2.924263,3.7905579-5.4206619,3.7905579
			c-1.1308517,0-2.1803589-0.3261185-3.066803-0.88657c0.8048553-2.2109528,2.924263-3.7903099,5.4205399-3.7903099
			C94.0220947,46.5090561,95.0816803,46.8351784,95.9681244,47.3953781z"/><path fill="#C9DBE7" d="M98.6784515,52.28619c0,3.189312-2.5880661,5.7773819-5.7772522,5.7773819
			c-3.1992645,0-5.7771378-2.5880699-5.7771378-5.7773819c0-0.5094566,0.0610733-0.9985123,0.1935349-1.4671707
			c0.641922,2.4758797,2.8937912,4.3099632,5.5836029,4.3099632c2.6797333,0,4.9316025-1.8340836,5.5835953-4.3099632
			C98.6173859,51.2876778,98.6784515,51.7767334,98.6784515,52.28619z"/><path fill="#EDF5F9" d="M202.9782715,52.2863083v0.0000076c0,2.3796501-1.9290924,4.3087387-4.3087463,4.3087387h-79.4708481
			c-2.3796463,0-4.3087311-1.9290886-4.3087311-4.3087387v-0.0000076c0-2.3796501,1.9290848-4.3087349,4.3087311-4.3087349
			h79.4708481C201.0491791,47.9775734,202.9782715,49.9066582,202.9782715,52.2863083z"/><path fill="#C9DBE7" d="M202.9785767,52.2862015c0,2.3815193-1.9253082,4.3066063-4.3066101,4.3066063H119.199913
			c-2.0803528,0-3.8138657-1.4780083-4.2152786-3.4398499h79.2528534c2.3815308,0,4.3066101-1.925087,4.3066101-4.3063812
			c0-0.3011703-0.0272827-0.5932083-0.0911102-0.8669815h0.2189789
			C201.0532684,47.9795952,202.9785767,49.9049034,202.9785767,52.2862015z"/><path fill="#EDF5F9" d="M229.7541656,147.3978729c-0.4946899,0-0.894989-0.4002991-0.894989-0.8949738v-4.4443054
			c0-0.4946747,0.4002991-0.8949738,0.894989-0.8949738c0.4946747,0,0.8949738,0.4002991,0.8949738,0.8949738v4.4443054
			C230.6491394,146.9975739,230.2488403,147.3978729,229.7541656,147.3978729z"/><path fill="#EDF5F9" d="M227.5315704 145.1761627c-.4938049 0-.8949738-.4002991-.8949738-.8949738 0-.4938202.4002991-.894989.8949738-.894989l4.4451752-.0008698c.4938202 0 .8949738.4002991.8949738.8949738 0 .4938202-.4002838.894989-.8949738.894989L227.5315704 145.1761627zM248.546936 121.2416306c-1.5050201 0-2.7295074-1.224472-2.7295074-2.7303772 0-1.5050354 1.2244873-2.7295074 2.7295074-2.7295074 1.5050354 0 2.7295074 1.224472 2.7295074 2.7295074C251.2764435 120.0171585 250.0519714 121.2416306 248.546936 121.2416306zM248.546936 117.571701c-.51828 0-.9395447.4212646-.9395447.9395523 0 .51828.4212646.9404221.9395447.9404221.5182953 0 .9395599-.422142.9395599-.9404221C249.486496 117.9929657 249.0652313 117.571701 248.546936 117.571701zM56.8676987 85.6461029v43.9738312c0 2.1895752 1.7750092 3.9645844 3.964592 3.9645844h45.0837708c2.1895828 0 3.964592-1.7750092 3.964592-3.9645844V85.6461029c0-2.1895828-1.7750092-3.964592-3.964592-3.964592H60.8322906C58.6427078 81.6815109 56.8676987 83.4565201 56.8676987 85.6461029z"/><path fill="#FFF" d="M56.8676987,85.6461029v21.9692688h7.3542557c1.8392792,0,3.3303146-1.4910278,3.3303146-3.3303146
				V81.6815109h-6.7199783C58.6427078,81.6815109,56.8676987,83.4565201,56.8676987,85.6461029z"/><path fill="#C9DBE7" d="M103.3175507,81.6815109v42.0296249c0,1.8336182-1.4864426,3.3200607-3.3200607,3.3200607H56.8676987
				v2.5887375c0,2.1895752,1.7750092,3.9645844,3.964592,3.9645844h45.0837708c2.1895828,0,3.964592-1.7750092,3.964592-3.9645844
				V85.6461029c0-2.1895828-1.7750092-3.964592-3.964592-3.964592H103.3175507z"/><path fill="#3FD0FC" d="M102.4699631,121.8566818v11.7280655H64.2784958v-11.7280655
				c0-3.9937134,3.2375488-7.2312622,7.2312622-7.2312622h5.4100418c0.9224091,0,1.7724304,0.4997101,2.2210159,1.3057022
				l4.2334137,7.6062927l4.2334213-7.6062927c0.4485855-0.8059921,1.2986069-1.3057022,2.2210159-1.3057022h5.4100342
				C99.2324219,114.6254196,102.4699631,117.8629684,102.4699631,121.8566818z"/><path fill="#25BAF4" d="M102.4676743,121.8550949v11.7296524H64.2805481v-5.1372223h28.2098618
				c2.7648697,0,5.0062408-2.2413635,5.0062408-5.0062256v-6.7234268c0-0.6249542-0.0782089-1.2208176-0.2343903-1.7968903
				C100.2702026,115.7901001,102.4676743,118.5638885,102.4676743,121.8550949z"/><path fill="#3FD0FC" d="M93.5591049,96.3881683c0,5.6197739-4.5558929,13.5144501-10.184761,13.5144501
				c-5.6288757,0-10.1849899-7.8946762-10.1849899-13.5144501c0-5.629097,4.5561142-10.184761,10.1849899-10.184761
				C89.003212,86.2034073,93.5591049,90.7590714,93.5591049,96.3881683z"/><path fill="#25BAF4" d="M93.5606918,96.3838196c0,5.6257858-4.5609055,13.5170135-10.1864624,13.5170135
				c-4.7466583,0-8.7312546-5.6157761-9.8643265-10.7529984c1.8460159,3.5649338,4.8832855,6.4949036,8.3113556,6.4949036
				c5.6255569,0,10.1769257-7.9012375,10.1769257-13.5170135c0-0.4394455-0.0295639-0.8693542-0.0782089-1.2892532
				C92.9552917,92.4285507,93.5606918,94.3329773,93.5606918,96.3838196z"/><path fill="#FFD372" d="M238.8508301,137.1730652l-46.842865,46.842865
			c-1.4659424,1.4659424-3.4066467,2.3610077-5.4733582,2.5243225l-17.9379425,1.4175873
			c-0.7099304,0.0561066-1.3018188-0.5357819-1.2457123-1.2457123l1.4175873-17.9379272
			c0.1633301-2.0667114,1.0583801-4.007431,2.5243225-5.4733734l46.842865-46.8428574
			c2.2463684-2.2463608,5.888443-2.2463608,8.1347961,0l12.580307,12.5802994
			C241.0971832,131.2846375,241.0971832,134.926712,238.8508301,137.1730652z"/><path fill="#FFF" d="M167.683197,187.6255951c-0.2276611-0.2276764-0.3610535-0.5496368-0.3296204-0.9106903
			l1.4129791-17.9444275c0.1648102-2.0643768,1.0676422-4.0032196,2.5275726-5.46315l46.8469849-46.8469925
			c2.2449036-2.2449036,5.8868713-2.2449036,8.1319733,0.0001907l3.1162872,3.1162949
			c-1.1303101-1.1303101-3.8696442-0.2276688-6.1145325,2.0172272L176.4278412,168.44104
			c-1.4599304,1.4599304-2.6218567,3.139679-3.2575378,4.7331848l-5.5104828,13.8469238
			C167.5419617,187.2957764,167.5655365,187.5079193,167.683197,187.6255951z" opacity=".4"/><path fill="#FFB85A" d="M238.848465,137.1676788l-46.8469849,46.8469849
			c-1.4599304,1.4599304-3.3987885,2.3627625-5.4633484,2.5273895l-17.9442444,1.4131622
			c-0.3610535,0.0314331-0.6830139-0.101944-0.9106903-0.3296204c0.1176758,0.1176758,0.3298187,0.1412354,0.6044464,0.0233765
			l13.8469238-5.5104828c1.5933228-0.6358643,3.2732544-1.7976074,4.7331848-3.2575378l46.8470001-46.8469849
			c2.2448883-2.2449036,3.1475372-4.9842377,2.0172272-6.1145477l3.1162872,3.1163025
			C241.1010284,131.2884674,241.0933685,134.9227753,238.848465,137.1676788z"/><path fill="#EDF5F9" d="M226.3790588,149.6447449l12.4717102-12.4716949c2.2464294-2.2464447,2.2464294-5.8884125,0-8.1348419
		l-12.5801849-12.5801773c-2.2464294-2.2464294-5.8883972-2.2464294-8.1348267,0l-12.4717102,12.4717026L226.3790588,149.6447449z"/><path fill="#FF6060" d="M238.848465,137.1676788l-7.9673462,7.9673462l-20.7073364-20.7073517l7.9673309-7.9673386
			c2.2449036-2.2449036,5.8868713-2.2449036,8.1319733,0.0001907l12.5751801,12.5751953
			C241.1010284,131.2884674,241.0933685,134.9227753,238.848465,137.1676788z"/><path fill="#FFF" d="M231.8623352,127.3084412c-3.9328918,3.9328918-10.2910156,3.9326935-14.2158508,0.0078583
			c-2.0486603-2.0486603-3.0223846-4.7487106-2.9438171-7.4175186l3.438446-3.438446
			c2.2449036-2.2449036,5.8868713-2.2449036,8.1319733,0.0001907l7.716095,7.716095
			C233.5027924,125.3069305,232.796402,126.3743744,231.8623352,127.3084412z" opacity=".2"/><path fill="#F9E1D7" d="M191.6954193,184.3050079c-1.4286957,1.287262-3.2341614,2.0881348-5.1572876,2.2370453
		l-10.000473,0.7851563l-7.9437714,0.628006c-0.7067719,0.0628662-1.30336-0.5337219-1.2403107-1.2403107l0.628006-7.9437714
		l0.7849731-10.0006561c0.1490936-1.9229431,0.9497833-3.7286072,2.2370453-5.1572876L191.6954193,184.3050079z"/><path fill="#31394C" d="M59.9103241 58.9611588c3.6812935 0 6.675621-2.9943314 6.675621-6.6747513s-2.9943275-6.6747475-6.675621-6.6747475c-3.6804199 0-6.6747513 2.9943275-6.6747513 6.6747475S56.2299042 58.9611588 59.9103241 58.9611588zM59.9103241 47.4016151c2.6936722 0 4.8856659 2.1911201 4.8856659 4.8847923s-2.1919937 4.8847961-4.8856659 4.8847961-4.8847961-2.191124-4.8847961-4.8847961S57.2166519 47.4016151 59.9103241 47.4016151zM76.4062271 58.9611588c3.6804199 0 6.6747513-2.9943314 6.6747513-6.6747513S80.086647 45.61166 76.4062271 45.61166s-6.6747513 2.9943275-6.6747513 6.6747475S72.7258072 58.9611588 76.4062271 58.9611588zM76.4062271 47.4016151c2.6936722 0 4.8847961 2.1911201 4.8847961 4.8847923s-2.191124 4.8847961-4.8847961 4.8847961-4.8847961-2.191124-4.8847961-4.8847961S73.7125549 47.4016151 76.4062271 47.4016151zM92.9012604 58.9611588c3.6804199 0 6.6747437-2.9943314 6.6747437-6.6747513S96.5816803 45.61166 92.9012604 45.61166s-6.6747513 2.9943275-6.6747513 6.6747475S89.2208405 58.9611588 92.9012604 58.9611588zM92.9012604 47.4016151c2.6936722 0 4.8847885 2.1911201 4.8847885 4.8847923s-2.1911163 4.8847961-4.8847885 4.8847961-4.8847961-2.191124-4.8847961-4.8847961S90.2075882 47.4016151 92.9012604 47.4016151zM119.1990891 57.4902115h79.4703293c2.8693542 0 5.2038116-2.3344574 5.2038116-5.203804s-2.3344574-5.203804-5.2038116-5.203804h-79.4703293c-2.8693466 0-5.203804 2.3344574-5.203804 5.203804S116.3297424 57.4902115 119.1990891 57.4902115zM119.1990891 48.8725586h79.4703293c1.8825989 0 3.4138489 1.53125 3.4138489 3.4138489s-1.53125 3.4138489-3.4138489 3.4138489h-79.4703293c-1.8825989 0-3.4138489-1.53125-3.4138489-3.4138489S117.3164902 48.8725586 119.1990891 48.8725586zM60.8341446 134.4810028h45.0740051c2.6796875 0 4.8594437-2.1797638 4.8594437-4.8594513V85.6417999c0-2.6796875-2.1797562-4.8594437-4.8594437-4.8594437H60.8341446c-2.6796913 0-4.8594513 2.1797562-4.8594513 4.8594437v43.9797516C55.9746933 132.301239 58.1544533 134.4810028 60.8341446 134.4810028zM65.1735611 132.6901703V121.856926c0-3.4942551 2.8422546-6.3365097 6.3365097-6.3365097h5.4100723c.5969391 0 1.1484375.3242569 1.4386063.8460312l4.2336578 7.6064377c.316391.5681 1.2480774.5681 1.5644684 0l4.2319107-7.6055603c.2910461-.5226517.8425369-.8469086 1.4394836-.8469086h5.4100647c3.4942627 0 6.3365173 2.8422546 6.3365173 6.3365097v10.8332443H65.1735611zM57.7646484 85.6417999c0-1.6929398 1.3765526-3.0694885 3.0694962-3.0694885h45.0740051c1.6929398 0 3.0694885 1.3765488 3.0694885 3.0694885v43.9797516c0 1.6929474-1.3765488 3.0695038-3.0694885 3.0695038h-2.5433426V121.856926c0-4.4810028-3.645462-8.1264648-8.1264725-8.1264648H89.82827c-1.2454529 0-2.3956375.6764755-3.003067 1.7654877l-3.4505615 6.2010345-3.4514313-6.2010345c-.6056824-1.0890121-1.7567444-1.7654877-3.003067-1.7654877h-5.4100723c-4.4810028 0-8.1264648 3.645462-8.1264648 8.1264648v10.8341293h-2.5494614c-1.6929436 0-3.0694962-1.3765564-3.0694962-3.0695038V85.6417999z"/><path fill="#31394C" d="M83.3746414 110.7973099c6.4274063 0 11.0797195-8.6062927 11.0797195-14.408783 0-6.1092758-4.9704514-11.0797195-11.0797195-11.0797195-6.1101456 0-11.0805893 4.9704437-11.0805893 11.0797195C72.2940521 102.1910172 76.9472351 110.7973099 83.3746414 110.7973099zM83.3746414 87.0987625c5.1225204 0 9.2897644 4.1672363 9.2897644 9.2897644 0 4.9826813-4.1619949 12.6188278-9.2897644 12.6188278-5.1286392 0-9.2906342-7.6361465-9.2906342-12.6188278C74.0840073 91.2659988 78.252121 87.0987625 83.3746414 87.0987625zM124.1756516 89.0941086h73.3147507c.4946747 0 .8949738-.4002914.8949738-.8949814 0-.4946823-.4002991-.8949738-.8949738-.8949738h-73.3147507c-.4946823 0-.8949738.4002914-.8949738.8949738C123.2806778 88.6938171 123.6809692 89.0941086 124.1756516 89.0941086zM124.1756516 108.5266571h73.3147507c.4946747 0 .8949738-.4002914.8949738-.8949814 0-.4946823-.4002991-.8949738-.8949738-.8949738h-73.3147507c-.4946823 0-.8949738.4002914-.8949738.8949738C123.2806778 108.1263657 123.6809692 108.5266571 124.1756516 108.5266571zM124.1756516 127.9592056h73.3147507c.4946747 0 .8949738-.4002914.8949738-.8949738 0-.4946899-.4002991-.8949814-.8949738-.8949814h-73.3147507c-.4946823 0-.8949738.4002914-.8949738.8949814C123.2806778 127.5589142 123.6809692 127.9592056 124.1756516 127.9592056zM147.9152832 165.0395966H56.8696709c-.4946823 0-.8949776.4002838-.8949776.8949738s.4002953.8949738.8949776.8949738h91.0456085c.4946899 0 .8949738-.4002838.8949738-.8949738S148.4099731 165.0395966 147.9152832 165.0395966zM147.9152832 184.4721375H56.8696709c-.4946823 0-.8949776.4002991-.8949776.894989 0 .4946747.4002953.8949738.8949776.8949738h91.0456085c.4946899 0 .8949738-.4002991.8949738-.8949738C148.810257 184.8724365 148.4099731 184.4721375 147.9152832 184.4721375z"/><path fill="#31394C" d="M239.9331055,128.9035645c-0.122467-0.1498871-0.2544403-0.2927856-0.3908844-0.4326324
			c-0.0205536-0.0214081-0.0378113-0.0441284-0.05867-0.0651093c0.0936432,0.091568-15.0275574-15.0301285-15.3238678-15.3264923
			c-1.2550659-1.2550659-2.924408-1.9472733-4.7003784-1.9472733c-1.4441833,0-2.8136292,0.4645309-3.9513702,1.3105621V67.5962906
			V50.5506401c0-7.4858208-6.0900421-13.5758629-13.5749817-13.5758629c-6.4234467,0-145.0698242,0-156.1727142,0
			c-7.4858208,0-13.5758667,6.0900421-13.5758667,13.5758629v135.9972534c0,7.4421234,6.0550842,13.4972076,13.4972076,13.4972076
			c15.6571808,0,135.5619965,0,156.3300323,0c7.4421234,0,13.4963226-6.0550842,13.4963226-13.4972076V161.781311
			c6.2056427-6.2056427,18.0872192-18.087204,23.9756165-23.9756012
			C241.9212036,135.3691864,242.0634613,131.4874725,239.9331055,128.9035645z M238.2153778,136.5349121l-7.3346252,7.3346252
			l-19.4412994-19.4421692l7.3346252-7.3346252c1.8948364-1.8930817,4.974823-1.8904648,6.8661652,0.0008774l12.5751343,12.5751266
			c0.0244598,0.0244751,0.0411835,0.0541992,0.0651093,0.0791016
			C240.2008362,131.7499237,239.9420624,134.8082275,238.2153778,136.5349121z M219.4593048,112.9220123
			c1.0522919,0,2.0436249,0.3478546,2.873703,0.9622726c-0.0433655-0.0008698-0.0858612-0.0061188-0.1293488-0.0061188
			c-1.6951447,0-3.405838,0.651001-4.7003784,1.9472809c-33.3516235,33.3516159-19.7584381,19.7584305-46.5108643,46.5108566
			l-0.0227203-0.0227203c-0.1898804,0.2818604-2.7970276,2.5346069-3.0957184,6.387207
			c0.0006561-0.0078735,0.0001068-0.0017548-0.0008698,0.0109253c-0.0005493,0.0078583-0.0016327,0.0218506-0.0029449,0.0380096
			c-0.0009918,0.0122375-0.0020752,0.0249176-0.0029602,0.0362701c-0.0393219,0.499939-0.2744293,3.4802856-1.2961426,16.4356079
			c-1.0931549-1.0986176-1.0824432-1.0016022-1.0682526-1.1838379l1.4141388-17.9318848
			c0.1529541-1.8546295,0.9579163-3.6026459,2.2645416-4.9180145l46.8429871-46.8429794
			C216.9421692,113.4280548,218.1614075,112.9220123,219.4593048,112.9220123z M168.9417877,177.9485931l0.7195282-9.1044769
			c0.1007233-1.2965698,0.5672302-2.6906128,1.4158783-3.891922l19.2796021,19.2796021
			c-1.1545563,0.8145599-2.4959259,1.2856598-3.7907562,1.4032135c-0.034317,0.0030518-0.067749,0.0100403-0.1020508,0.0126648
			l-8.3045349,0.6563721l-0.7992859,0.0629272C176.8078613,181.9817657,173.3286133,178.5013428,168.9417877,177.9485931z
			 M201.9329529,38.7647324c6.4981995,0,11.7850342,5.2868347,11.7850342,11.7859077v15.2556953H43.0945358V50.5506401
			c0-6.499073,5.2868347-11.7859077,11.7850342-11.7859077C59.245182,38.7647324,197.546524,38.7647324,201.9329529,38.7647324z
			 M45.6815796,198.2551422c-6.4553757,0-11.7072525-5.2518768-11.7072525-11.7072449V50.5506401
			c0-6.499073,5.2868385-11.7859077,11.7859116-11.7859077h2.4091873
			c-4.0938263,2.3405762-6.8648453,6.7420464-6.8648453,11.7859077c0,20.3840446,0,113.4634705,0,135.9972534
			c0,5.0075989,2.7472038,9.377594,6.8078156,11.7072449H45.6815796z M213.7179871,186.5478973
			c0,6.455368-5.2518768,11.7072449-11.7063751,11.7072449c-4.4082947,0-142.8426056,0-147.2106934,0
			c-6.4545021,0-11.7063751-5.2518768-11.7063751-11.7072449V67.5962906h170.6234436v46.5239792l-31.4876556,31.4876556H56.8696709
			c-0.4946823,0-0.8949776,0.4002838-0.8949776,0.8949738c0,0.4946747,0.4002953,0.8949738,0.8949776,0.8949738h123.570694
			l-12.5261841,12.5261841c-1.6064148,1.6169128-2.5940399,3.759964-2.7819519,6.0384827l-1.4141235,17.9336395
			c-0.0568085,0.7140503,0.2595673,1.402771,0.8311768,1.8231659l2.4970093,2.5346069
			c0.0045929,0.004364,0.0109253,0.0061188,0.0155182,0.0104828c0.3808441,0.3775635,1.0296783,0.631897,1.6057587,0.5855865
			c0.0220642-0.0017548,0.0358429-0.0026245,0.0549622-0.0043793c-0.0143127,0.000885-0.0266571,0.0021973-0.0363922,0.003067
			c0.0102692-0.0008698,0.0339813-0.0026245,0.0539703-0.0043793c0.041626-0.0030518,0.0904694-0.0069885,0.1339417-0.0104828
			c-0.0157318,0.0013123-0.0313568,0.002182-0.0525513,0.0039368c0.0331116-0.0026245,0.0702515-0.005249,0.1165771-0.0091858
			c-0.0150757,0.0013123-0.0384521,0.003067-0.0640259,0.005249c0.0896912-0.007431,0.0989838-0.0078583,0.0653381-0.005249
			c0.934967-0.0738525,4.7003784-0.3710022,17.6679382-1.3944702c3.3535461-0.261322,4.9464111-1.9424591,6.3880768-3.0948334
			l-0.0227203-0.0227203l20.7453003-20.7453003V186.5478973z M191.7071228,183.0510101l-19.4491425-19.4491425
			l33.4065094-33.4065247l19.4487305,19.449585L191.7071228,183.0510101z M206.9300537,128.9297791l3.2403564-3.2403564
			l19.4487152,19.4496002l-3.2403564,3.2403564L206.9300537,128.9297791z"/><g opacity=".05"><path fill="#FFF" d="M226.5569305,122.5709839c-0.1192627,1.2427979-1.7870026,2.0965958-3.7145233,1.9116211
			c-1.9275208-0.1849823-3.4028015-1.3404007-3.2835388-2.5831985c0.1209869-1.260643,1.7890778-2.1144028,3.7165985-1.9294281
			S226.6779175,121.3103409,226.5569305,122.5709839z"/></g><g><path fill="#EDF5F9" d="M17.810545,168.786438h-4.4442978c-0.4946852,0-0.8949776-0.4002991-0.8949776-0.8949738
			c0-0.4946899,0.4002924-0.8949738,0.8949776-0.8949738h4.4442978c0.4946842,0,0.8949776,0.4002838,0.8949776,0.8949738
			C18.7055225,168.3861389,18.3052292,168.786438,17.810545,168.786438z"/></g></svg>